# Blender 5.0.1
# www.blender.org
mtllib Arrow.mtl
o Cylinder
v -0.016259 0.330451 -0.009387
v 0.000000 0.384216 -0.018774
v 0.000000 0.330451 0.018774
v -0.016259 0.330451 0.009387
v 0.000000 0.384216 0.018774
v 0.000000 0.330451 -0.018774
v -0.016259 0.384216 0.009387
v -0.016259 0.384216 -0.009387
v 0.000000 0.544524 0.000000
v -0.093699 0.312670 0.000000
v -0.086444 0.368199 0.000000
v 0.016259 0.330451 -0.009387
v 0.016259 0.330451 0.009387
v 0.016259 0.384216 0.009387
v 0.016259 0.384216 -0.009387
v 0.093699 0.312670 0.000000
v 0.086444 0.368199 0.000000
vn -0.5000 -0.0000 -0.8660
vn -0.4974 0.1009 0.8616
vn -1.0000 -0.0000 -0.0000
vn -0.5000 -0.0000 0.8660
vn -0.1455 0.0588 -0.9876
vn -0.4974 0.1009 -0.8616
vn -0.1455 0.0588 0.9876
vn 0.6786 -0.7345 -0.0000
vn -0.0000 -1.0000 -0.0000
vn 0.5000 -0.0000 -0.8660
vn 0.4974 0.1009 0.8616
vn 1.0000 -0.0000 -0.0000
vn 0.5000 -0.0000 0.8660
vn 0.1455 0.0588 -0.9876
vn 0.4974 0.1009 -0.8616
vn 0.1455 0.0588 0.9876
vn -0.6786 -0.7345 -0.0000
vt 0.166667 1.000000
vt -0.000000 1.000000
vt 0.333333 1.000000
vt 0.500000 1.000000
s 0
f 8/1/1 2/2/1 6/2/1 1/1/1
f 7/3/2 5/4/2 9/3/2
f 7/3/3 8/1/3 1/1/3 4/3/3
f 5/4/4 7/3/4 4/3/4 3/4/4
f 9/2/5 8/1/5 10/1/5 11/2/5
f 2/2/6 8/1/6 9/2/6
f 7/3/7 9/3/7 11/3/7 10/3/7
f 8/1/8 7/3/8 10/1/8
f 6/2/9 3/4/9 4/3/9 1/1/9
f 15/1/10 12/1/10 6/2/10 2/2/10
f 14/3/11 9/3/11 5/4/11
f 14/3/12 13/3/12 12/1/12 15/1/12
f 5/4/13 3/4/13 13/3/13 14/3/13
f 9/2/14 17/2/14 16/1/14 15/1/14
f 2/2/15 9/2/15 15/1/15
f 14/3/16 16/3/16 17/3/16 9/3/16
f 15/1/17 16/1/17 14/3/17
f 6/2/9 12/1/9 13/3/9 3/4/9
o Cylinder.001
v 0.000000 -0.575273 -0.011761
v 0.000000 0.333241 -0.011761
v 0.000000 -0.575273 0.011761
v 0.000000 0.333241 0.011761
v -0.010186 -0.575273 0.005881
v -0.010186 0.333241 0.005881
v -0.010186 -0.575273 -0.005881
v -0.010186 0.333241 -0.005881
v 0.000000 -0.316083 -0.011761
v 0.000000 -0.316083 0.011761
v -0.010186 -0.316083 0.005881
v -0.010186 -0.316083 -0.005881
v 0.000000 -0.536084 0.011761
v -0.010186 -0.536084 0.005881
v -0.010186 -0.536084 -0.005881
v 0.000000 -0.536084 -0.011761
v -0.094296 -0.421496 0.001920
v -0.094296 -0.421496 -0.001920
v -0.083763 -0.567211 0.001920
v -0.083763 -0.567211 -0.001920
v -0.092616 -0.444738 0.001920
v -0.091603 -0.458743 0.001920
v -0.090279 -0.477070 0.001920
v -0.088200 -0.505820 0.001920
v -0.086854 -0.524443 0.001920
v -0.085317 -0.545715 0.001920
v -0.092616 -0.444738 -0.001920
v -0.091603 -0.458743 -0.001920
v -0.090279 -0.477070 -0.001920
v -0.088200 -0.505820 -0.001920
v -0.086854 -0.524443 -0.001920
v -0.085317 -0.545715 -0.001920
v -0.068130 -0.426005 0.004520
v -0.040112 -0.431690 0.005178
v -0.044579 -0.485290 0.005073
v -0.068130 -0.426005 -0.004462
v -0.040112 -0.431690 -0.005077
v -0.044579 -0.485290 -0.004957
v 0.010186 -0.575273 0.005881
v 0.010186 0.333241 0.005881
v 0.010186 -0.575273 -0.005881
v 0.010186 0.333241 -0.005881
v 0.010186 -0.316083 0.005881
v 0.010186 -0.316083 -0.005881
v 0.010186 -0.536084 0.005881
v 0.010186 -0.536084 -0.005881
v 0.094296 -0.421496 0.001920
v 0.094296 -0.421496 -0.001920
v 0.083763 -0.567211 0.001920
v 0.083763 -0.567211 -0.001920
v 0.092616 -0.444738 0.001920
v 0.091603 -0.458743 0.001920
v 0.090279 -0.477070 0.001920
v 0.088200 -0.505820 0.001920
v 0.086854 -0.524443 0.001920
v 0.085317 -0.545715 0.001920
v 0.092616 -0.444738 -0.001920
v 0.091603 -0.458743 -0.001920
v 0.090279 -0.477070 -0.001920
v 0.088200 -0.505820 -0.001920
v 0.086854 -0.524443 -0.001920
v 0.085317 -0.545715 -0.001920
v 0.068130 -0.426005 0.004520
v 0.040112 -0.431690 0.005178
v 0.044579 -0.485290 0.005073
v 0.068130 -0.426005 -0.004462
v 0.040112 -0.431690 -0.005077
v 0.044579 -0.485290 -0.004957
vn -0.5000 -0.0000 0.8660
vn -1.0000 -0.0000 -0.0000
vn -0.5000 -0.0000 -0.8660
vn -0.0468 -0.0010 0.9989
vn -0.9974 -0.0721 -0.0000
vn 0.3896 -0.9210 -0.0000
vn -0.7817 0.6237 -0.0000
vn -0.0471 -0.0010 -0.9989
vn -0.8292 0.5590 -0.0000
vn 0.6795 -0.7337 -0.0000
vn -0.8389 0.5442 -0.0000
vn 0.6708 -0.7416 -0.0000
vn -0.8127 0.5827 -0.0000
vn 0.6076 -0.7942 -0.0000
vn -0.0000 -1.0000 -0.0000
vn 0.5000 -0.0000 0.8660
vn 1.0000 -0.0000 -0.0000
vn 0.5000 -0.0000 -0.8660
vn 0.0468 -0.0010 0.9989
vn 0.9974 -0.0721 -0.0000
vn -0.3896 -0.9210 -0.0000
vn 0.7817 0.6237 -0.0000
vn 0.0471 -0.0010 -0.9989
vn 0.8292 0.5590 -0.0000
vn -0.6795 -0.7337 -0.0000
vn 0.8389 0.5442 -0.0000
vn -0.6708 -0.7416 -0.0000
vn 0.8127 0.5827 -0.0000
vn -0.6076 -0.7942 -0.0000
vt 0.500000 0.607143
vt 0.500000 1.000000
vt 0.333333 1.000000
vt 0.333333 0.607143
vt 0.166667 1.000000
vt 0.166667 0.607143
vt -0.000000 1.000000
vt -0.000000 0.607143
vt 0.166667 0.521568
vt -0.000000 0.521568
vt 0.333333 0.521568
vt 0.333333 0.593493
vt 0.333333 0.588612
vt 0.333333 0.585268
vt 0.333333 0.574506
vt 0.333333 0.572923
vt 0.333333 0.557621
vt 0.333333 0.546684
vt 0.333333 0.550823
vt 0.333333 0.534192
vt 0.500000 0.521568
vt 0.500000 0.500000
vt 0.333333 0.500000
vt 0.166667 0.500000
vt -0.000000 0.500000
vt 0.166667 0.534192
vt 0.166667 0.550769
vt 0.166667 0.546684
vt 0.166667 0.557621
vt 0.166667 0.572878
vt 0.166667 0.574506
vt 0.166667 0.585268
vt 0.166667 0.588582
vt 0.166667 0.593493
s 0
f 27/5/18 21/6/18 23/7/18 28/8/18
f 28/8/19 23/7/19 25/9/19 29/10/19
f 29/10/20 25/9/20 19/11/20 26/12/20
f 32/13/20 29/10/20 26/12/20 33/14/20
f 31/15/21 28/8/21 34/8/21 38/16/21 50/17/21 39/18/21 40/19/21 51/20/21 41/21/21 42/22/21 52/23/21 43/24/21 36/15/21
f 30/25/18 27/5/18 28/8/18 31/15/18
f 20/26/18 30/25/18 31/15/18 22/27/18
f 22/27/19 31/15/19 32/13/19 24/28/19
f 24/28/20 32/13/20 33/14/20 18/29/20
f 36/15/22 43/24/22 49/30/22 37/13/22
f 32/13/23 31/15/23 36/15/23 37/13/23
f 28/8/24 29/10/24 35/10/24 34/8/24
f 29/10/25 32/13/25 37/13/25 49/30/25 55/31/25 48/32/25 47/33/25 54/34/25 46/35/25 45/36/25 53/37/25 44/38/25 35/10/25
f 48/32/22 42/22/22 41/21/22 47/33/22
f 46/35/22 40/19/22 39/18/22 45/36/22
f 44/38/22 38/16/22 34/8/22 35/10/22
f 43/24/26 52/23/26 55/31/26 49/30/26
f 52/23/27 42/22/27 48/32/27 55/31/27
f 41/21/28 51/20/28 54/34/28 47/33/28
f 51/20/29 40/19/29 46/35/29 54/34/29
f 39/18/30 50/17/30 53/37/30 45/36/30
f 50/17/31 38/16/31 44/38/31 53/37/31
f 20/26/32 22/27/32 24/28/32 18/29/32
f 27/5/33 60/8/33 57/7/33 21/6/33
f 60/8/34 61/10/34 59/9/34 57/7/34
f 61/10/35 26/12/35 19/11/35 59/9/35
f 63/13/35 33/14/35 26/12/35 61/10/35
f 62/15/36 66/15/36 73/24/36 82/23/36 72/22/36 71/21/36 81/20/36 70/19/36 69/18/36 80/17/36 68/16/36 64/8/36 60/8/36
f 30/25/33 62/15/33 60/8/33 27/5/33
f 20/26/33 56/27/33 62/15/33 30/25/33
f 56/27/34 58/28/34 63/13/34 62/15/34
f 58/28/35 18/29/35 33/14/35 63/13/35
f 66/15/37 67/13/37 79/30/37 73/24/37
f 63/13/38 67/13/38 66/15/38 62/15/38
f 60/8/39 64/8/39 65/10/39 61/10/39
f 61/10/40 65/10/40 74/38/40 83/37/40 75/36/40 76/35/40 84/34/40 77/33/40 78/32/40 85/31/40 79/30/40 67/13/40 63/13/40
f 78/32/37 77/33/37 71/21/37 72/22/37
f 76/35/37 75/36/37 69/18/37 70/19/37
f 74/38/37 65/10/37 64/8/37 68/16/37
f 73/24/41 79/30/41 85/31/41 82/23/41
f 82/23/42 85/31/42 78/32/42 72/22/42
f 71/21/43 77/33/43 84/34/43 81/20/43
f 81/20/44 84/34/44 76/35/44 70/19/44
f 69/18/45 75/36/45 83/37/45 80/17/45
f 80/17/46 83/37/46 74/38/46 68/16/46
f 20/26/32 18/29/32 58/28/32 56/27/32
