v 0.000000 0.000110 -0.147409
v 0.000000 3.544397 -0.147409
v 0.127660 0.000110 -0.073705
v 0.127660 3.544397 -0.073705
v 0.127660 0.000110 0.073705
v 0.127660 3.544397 0.073705
v 0.000000 0.000110 0.147409
v 0.000000 3.544397 0.147409
v -0.127660 0.000110 0.073705
v -0.127660 3.544397 0.073705
v -0.127660 0.000110 -0.073705
v -0.127660 3.544397 -0.073705
v 0.298287 3.544397 -0.172216
v 0.000000 3.544397 -0.344432
v 0.298287 3.544397 0.172216
v 0.000000 3.544397 0.344432
v -0.298287 3.544397 0.172216
v -0.298287 3.544397 -0.172216
v 0.000000 4.484554 0.000000
vn 0.5000 -0.0000 -0.8660
vn 1.0000 -0.0000 -0.0000
vn 0.5000 -0.0000 0.8660
vn -0.5000 -0.0000 0.8660
vn -0.0000 -1.0000 -0.0000
vn -1.0000 -0.0000 -0.0000
vn -0.5000 -0.0000 -0.8660
vn -0.4766 0.3024 0.8255
vn 0.9532 0.3024 -0.0000
vn -0.9532 0.3024 -0.0000
vn 0.4766 0.3024 0.8255
vn 0.4766 0.3024 -0.8255
vn -0.4766 0.3024 -0.8255
vt 1.000000 1.000000
vt 0.833333 0.500000
vt 1.000000 0.500000
vt 0.833333 1.000000
vt 0.666667 0.500000
vt 0.666667 1.000000
vt 0.500000 0.500000
vt 0.500000 1.000000
vt 0.333333 0.500000
vt 0.333333 1.000000
vt 0.166667 1.000000
vt 0.166667 0.500000
vt -0.000000 0.500000
vt 0.957846 0.370000
vt 0.750000 0.010000
vt 0.542154 0.370000
vt -0.000000 1.000000
vt 0.750000 0.490000
vt 0.957846 0.130000
vt 0.542154 0.130000
s 0
f 2/1/1 3/2/1 1/3/1
f 4/4/2 5/5/2 3/2/2
f 6/6/3 7/7/3 5/5/3
f 8/8/4 9/9/4 7/7/4
f 10/10/5 18/11/5 12/11/5
f 10/10/6 11/12/6 9/9/6
f 12/11/7 1/13/7 11/12/7
f 3/14/5 7/15/5 11/16/5
f 17/10/8 16/8/8 19/10/8
f 2/1/5 13/4/5 4/4/5
f 6/6/5 16/8/5 8/8/5
f 12/11/5 14/17/5 2/17/5
f 8/8/5 17/10/5 10/10/5
f 4/4/5 15/6/5 6/6/5
f 15/6/9 13/4/9 19/6/9
f 18/11/10 17/10/10 19/11/10
f 16/8/11 15/6/11 19/8/11
f 13/4/12 14/1/12 19/4/12
f 14/17/13 18/11/13 19/17/13
f 2/1/1 4/4/1 3/2/1
f 4/4/2 6/6/2 5/5/2
f 6/6/3 8/8/3 7/7/3
f 8/8/4 10/10/4 9/9/4
f 10/10/5 17/10/5 18/11/5
f 10/10/6 12/11/6 11/12/6
f 12/11/7 2/17/7 1/13/7
f 11/16/5 1/18/5 3/14/5
f 3/14/5 5/19/5 7/15/5
f 7/15/5 9/20/5 11/16/5
f 2/1/5 14/1/5 13/4/5
f 6/6/5 15/6/5 16/8/5
f 12/11/5 18/11/5 14/17/5
f 8/8/5 16/8/5 17/10/5
f 4/4/5 13/4/5 15/6/5
