# Blender 5.2.1 LTS
# www.blender.org
mtllib SkibidiToilet.mtl
o Body_Body_0
v 0.084951 1.071995 -0.306331
v 0.085345 1.111351 -0.249909
v 0.085116 1.111351 -0.282617
v 0.085528 1.071995 -0.223627
v 0.201019 1.071995 -0.224434
v 0.085345 1.111351 -0.249909
v 0.085528 1.071995 -0.223627
v 0.201019 1.071995 -0.224434
v 0.200836 1.111351 -0.250715
v 0.085345 1.111351 -0.249909
v 0.200836 1.111351 -0.250715
v 0.085116 1.111351 -0.282617
v 0.085345 1.111351 -0.249909
v 0.200607 1.111351 -0.283423
v 0.200607 1.111351 -0.283423
v 0.084951 1.071995 -0.306331
v 0.085116 1.111351 -0.282617
v 0.200607 1.111351 -0.283423
v 0.200442 1.071995 -0.307132
v 0.084951 1.071995 -0.306331
v 0.201019 1.071995 -0.224434
v 0.200607 1.111351 -0.283423
v 0.200836 1.111351 -0.250715
v 0.200442 1.071995 -0.307132
v -0.605599 1.696186 -0.574332
v -0.622091 1.675781 -0.540571
v -0.625572 1.694325 -0.565767
v -0.602089 1.671053 -0.545012
v -0.625572 1.694325 -0.565767
v -0.622091 1.675781 -0.540571
v -0.628787 1.720142 -0.546997
v -0.624489 1.688695 -0.515959
v -0.627018 1.708151 -0.516225
v -0.623976 1.688570 -0.444924
v -0.625738 1.702143 -0.445195
v -0.612632 1.687554 -0.433665
v -0.625738 1.702143 -0.445195
v -0.623976 1.688570 -0.444924
v -0.612632 1.687554 -0.433665
v -0.614393 1.705953 -0.433983
v -0.625738 1.702143 -0.445195
v -0.606989 1.714937 -0.516692
v -0.608793 1.731190 -0.552497
v -0.628787 1.720142 -0.546997
v -0.627018 1.708151 -0.516225
v -0.625738 1.702143 -0.445195
v -0.614393 1.705953 -0.433983
v -0.612632 1.687554 -0.433665
v -0.623976 1.688570 -0.444924
v -0.624489 1.688695 -0.515959
v -0.604465 1.688560 -0.516379
v -0.602089 1.671053 -0.545012
v -0.604465 1.688560 -0.516379
v -0.624489 1.688695 -0.515959
v -0.622091 1.675781 -0.540571
v -0.604465 1.688560 -0.516379
v -0.614393 1.705953 -0.433983
v -0.612632 1.687554 -0.433665
v -0.606989 1.714937 -0.516692
v -0.608793 1.731190 -0.552497
v -0.625572 1.694325 -0.565767
v -0.628787 1.720142 -0.546997
v -0.605599 1.696186 -0.574332
v 0.481464 1.071225 -0.750469
v 0.481151 1.111371 -0.795358
v 0.521611 1.111371 -0.750749
v 0.549829 1.786366 -0.834052
v 0.590289 1.786366 -0.789443
v 0.593200 1.786366 -0.372543
v 0.524056 1.111371 -0.400571
v 0.483909 1.071222 -0.400290
v 0.484222 1.111371 -0.355401
v 0.483909 1.071222 -0.400290
v 0.524056 1.111371 -0.400571
v 0.484222 1.111371 -0.355401
v 0.553366 1.786366 -0.327373
v 0.001268 1.111371 -0.352029
v 0.484222 1.111371 -0.355401
v 0.553366 1.786366 -0.327373
v 0.001268 1.111371 -0.352029
v 0.001467 1.786366 -0.323520
v -0.561779 1.786366 -0.319588
v 0.000955 1.071222 -0.396918
v 0.481464 1.071225 -0.750469
v -0.001490 1.071225 -0.747097
v -0.489735 1.071225 -0.743688
v -0.487290 1.071222 -0.393510
v -0.486977 1.111371 -0.348620
v -0.486977 1.111371 -0.348620
v -0.527437 1.111371 -0.393229
v -0.486977 1.111371 -0.348620
v -0.561779 1.786366 -0.319588
v -0.487290 1.071222 -0.393510
v -0.602241 1.786366 -0.364197
v -0.605152 1.786366 -0.781096
v -0.529882 1.111371 -0.743408
v -0.489735 1.071225 -0.743688
v -0.529882 1.111371 -0.743408
v -0.605152 1.786366 -0.781096
v -0.565317 1.786366 -0.826266
v -0.490049 1.111371 -0.788577
v -0.489735 1.071225 -0.743688
v -0.002070 1.786366 -0.830198
v -0.001803 1.111371 -0.791986
v -0.001803 1.111371 -0.791986
v -0.490049 1.111371 -0.788577
v 0.549829 1.786366 -0.834052
v 0.481151 1.111371 -0.795358
v 0.481151 1.111371 -0.795358
v -0.274120 0.003921 0.508859
v -0.275026 0.032505 0.508866
v -0.223291 0.032505 -0.489035
v -0.224195 0.003926 -0.489028
v -0.224195 0.003926 -0.489028
v -0.223291 0.032505 -0.489035
v -0.202799 0.032505 -0.507109
v -0.203703 0.003926 -0.507103
v -0.253503 -0.016697 0.508715
v -0.203578 -0.016697 -0.489172
v -0.203578 -0.016697 -0.489172
v -0.253377 0.003921 0.526646
v -0.274120 0.003921 0.508859
v -0.253503 -0.016697 0.508715
v -0.275026 0.032505 0.508866
v -0.254280 0.032505 0.526652
v 0.261930 -0.016697 0.505117
v 0.261930 -0.016697 0.505117
v -0.253503 -0.016697 0.508715
v -0.203578 -0.016697 -0.489172
v 0.262056 0.003921 0.523047
v 0.261152 0.032505 0.523054
v 0.282553 0.003921 0.504973
v 0.281648 0.032505 0.504979
v 0.194463 -0.016697 -0.491951
v 0.282553 0.003921 0.504973
v 0.261930 -0.016697 0.505117
v 0.194463 -0.016697 -0.491951
v 0.194338 0.003927 -0.509882
v 0.194463 -0.016697 -0.491951
v 0.215080 0.003927 -0.492095
v 0.194338 0.003927 -0.509882
v 0.281648 0.032505 0.504979
v 0.215984 0.032505 -0.492101
v 0.195242 0.032505 -0.509888
v 0.195242 0.032505 -0.509888
v 0.280742 0.061090 0.504985
v 0.216889 0.061084 -0.492108
v 0.196146 0.061084 -0.509894
v 0.260124 0.081707 0.505129
v 0.280742 0.061090 0.504985
v 0.216889 0.061084 -0.492108
v 0.196271 0.081707 -0.491964
v 0.196271 0.081707 -0.491964
v 0.260250 0.061090 0.523060
v 0.280742 0.061090 0.504985
v 0.260124 0.081707 0.505129
v -0.255309 0.081707 0.508728
v -0.255309 0.081707 0.508728
v -0.255183 0.061090 0.526659
v -0.275932 0.061090 0.508872
v -0.201769 0.081707 -0.489185
v -0.275932 0.061090 0.508872
v 0.196271 0.081707 -0.491964
v 0.196146 0.061084 -0.509894
v -0.201894 0.061084 -0.507115
v -0.201769 0.081707 -0.489185
v -0.222387 0.061084 -0.489041
v -0.222387 0.061084 -0.489041
v -0.275932 0.061090 0.508872
v -0.222387 0.061084 -0.489041
v -0.357931 0.982981 -0.445537
v -0.125229 0.982981 -0.544943
v -0.084898 0.523419 -0.413845
v -0.356934 1.071961 -0.444610
v -0.124885 1.071961 -0.545452
v 0.362192 0.982981 -0.450565
v 0.361207 1.071961 -0.449624
v 0.435186 1.072653 -0.026789
v 0.381905 0.867784 -0.058392
v 0.381905 0.867784 -0.058392
v 0.164977 0.829934 -0.272820
v 0.362192 0.982981 -0.450565
v 0.186654 0.708742 -0.069968
v 0.442221 0.883153 0.070761
v 0.477598 1.072653 0.087757
v 0.186654 0.708742 -0.069968
v 0.358162 0.730059 0.061585
v 0.168897 0.617065 0.061108
v 0.186654 0.708742 -0.069968
v 0.358162 0.730059 0.061585
v 0.471498 0.906122 0.196471
v 0.495070 1.072653 0.196307
v 0.486485 1.072653 0.310486
v 0.319485 0.658307 0.197532
v 0.149940 0.544760 0.198716
v 0.407739 0.767529 0.196916
v 0.319485 0.658307 0.197532
v 0.452221 0.885442 0.329892
v 0.452583 1.072653 0.444493
v 0.258620 0.630510 0.344274
v 0.258620 0.630510 0.344274
v 0.161111 0.517828 0.345768
v 0.149940 0.544760 0.198716
v 0.394492 0.737789 0.341281
v 0.394492 0.737789 0.341281
v 0.400601 0.873259 0.484851
v 0.391130 1.072666 0.582153
v 0.158732 0.630374 0.494283
v 0.042705 0.534530 0.436305
v 0.161111 0.517828 0.345768
v 0.158732 0.630374 0.494283
v 0.319339 0.725922 0.501962
v 0.319339 0.725922 0.501962
v 0.312912 0.870407 0.635743
v 0.293325 1.072689 0.710317
v 0.009410 0.659696 0.601110
v -0.026092 0.534530 0.436785
v 0.202293 0.733014 0.642788
v 0.202293 0.733014 0.642788
v 0.183563 0.878062 0.753599
v 0.312912 0.870407 0.635743
v 0.293325 1.072689 0.710317
v 0.202293 0.733014 0.642788
v 0.171054 1.072733 0.795676
v 0.010265 0.761681 0.723563
v 0.010265 0.761681 0.723563
v 0.010846 0.897741 0.806847
v 0.011013 1.072814 0.830783
v -0.149411 1.072733 0.797913
v -0.162506 0.878062 0.756015
v -0.277841 1.072689 0.709886
v -0.141298 0.630374 0.496377
v -0.145750 0.517828 0.347911
v -0.156932 0.733014 0.645296
v -0.156932 0.733014 0.645296
v -0.293489 0.870407 0.639977
v -0.293489 0.870407 0.639977
v -0.277841 1.072689 0.709886
v -0.372447 1.072666 0.587484
v -0.141298 0.630374 0.496377
v -0.243271 0.630510 0.347778
v -0.145750 0.517828 0.347911
v -0.137772 0.544760 0.200725
v -0.275928 0.725922 0.506118
v -0.156932 0.733014 0.645296
v -0.275928 0.725922 0.506118
v -0.243271 0.630510 0.347778
v -0.383275 0.873259 0.490324
v -0.435815 1.072653 0.450695
v -0.137772 0.544760 0.200725
v -0.243271 0.630510 0.347778
v -0.306179 0.658307 0.201901
v -0.165685 0.617060 0.063444
v -0.243271 0.630510 0.347778
v -0.353317 0.737789 0.346502
v -0.306179 0.658307 0.201901
v -0.437053 0.885442 0.336101
v -0.471586 1.072653 0.317175
v -0.346750 0.730059 0.066507
v -0.178234 0.708742 -0.067420
v -0.394432 0.767529 0.202517
v -0.346750 0.730059 0.066507
v -0.458192 0.906122 0.202962
v -0.481770 1.072653 0.203127
v -0.465810 1.072653 0.094344
v -0.430672 0.883153 0.076856
v -0.425002 1.072653 -0.020783
v -0.178234 0.708742 -0.067420
v -0.346750 0.730059 0.066507
v -0.372166 0.867784 -0.053127
v -0.372166 0.867784 -0.053127
v -0.178234 0.708742 -0.067420
v -0.372166 0.867784 -0.053127
v -0.158260 0.829934 -0.270563
v -0.356934 1.071961 -0.444610
v -0.357931 0.982981 -0.445537
v -0.357931 0.982981 -0.445537
v 0.122738 0.078192 -0.292409
v 0.075255 0.078189 -0.477781
v 0.089558 0.225943 -0.425100
v 0.135339 0.334793 -0.094975
v 0.089688 0.378898 -0.406490
v 0.100285 0.078221 -0.088806
v 0.167899 0.078222 0.000575
v 0.089628 0.523419 -0.415063
v 0.181430 0.334793 0.108972
v 0.218608 0.078223 0.108049
v 0.215304 0.078223 0.250782
v 0.166495 0.334793 0.341838
v 0.174312 0.078223 0.374401
v 0.174312 0.078223 0.374401
v 0.166495 0.334793 0.341838
v 0.050540 0.334793 0.432971
v 0.082042 0.078223 0.456137
v -0.047193 0.078223 0.457039
v -0.026115 0.334793 0.433506
v -0.158551 0.078223 0.376725
v -0.151189 0.334793 0.344056
v -0.151189 0.334793 0.344056
v -0.201254 0.078223 0.253749
v -0.158551 0.078223 0.376725
v -0.157695 0.334793 0.156828
v -0.206562 0.078223 0.111017
v -0.163254 0.078222 0.012972
v -0.126502 0.334793 -0.079310
v -0.163254 0.078222 0.012972
v -0.126502 0.334793 -0.079310
v -0.090999 0.078221 -0.087470
v -0.090999 0.078221 -0.087470
v -0.116293 0.078213 -0.290740
v -0.084968 0.225943 -0.423881
v -0.071402 0.078209 -0.476757
v -0.084838 0.378898 -0.405272
v -0.178234 0.708742 -0.067420
v -0.084898 0.523419 -0.413845
v -0.158260 0.829934 -0.270563
v -0.357931 0.982981 -0.445537
v -0.165685 0.617060 0.063444
v -0.145750 0.517828 0.347911
v -0.026092 0.534530 0.436785
v 0.042705 0.534530 0.436305
v 0.161111 0.517828 0.345768
v 0.168897 0.617065 0.061108
v 0.186654 0.708742 -0.069968
v 0.164977 0.829934 -0.272820
v 0.362192 0.982981 -0.450565
v 0.089558 0.225943 -0.425100
v 0.075255 0.078189 -0.477781
v -0.071402 0.078209 -0.476757
v 0.089558 0.225943 -0.425100
v -0.071402 0.078209 -0.476757
v -0.084968 0.225943 -0.423881
v -0.084838 0.378898 -0.405272
v 0.089688 0.378898 -0.406490
v 0.089628 0.523419 -0.415063
v 0.128335 0.982981 -0.546713
v 0.362192 0.982981 -0.450565
v 0.361207 1.071961 -0.449624
v 0.127984 1.071961 -0.547218
v -0.101371 0.966586 -0.202530
v 0.003389 0.966552 -0.218022
v 0.003460 1.072876 -0.214436
v -0.105761 1.073234 -0.203473
v -0.189586 0.966832 -0.152280
v -0.195458 1.073303 -0.163249
v -0.258238 0.967190 -0.077985
v -0.263663 1.073371 -0.100040
v -0.307854 0.967584 0.012572
v -0.258238 0.967190 -0.077985
v -0.263663 1.073371 -0.100040
v -0.311794 1.073433 -0.016114
v -0.339378 0.968123 0.109030
v -0.341753 1.073485 0.086026
v -0.351273 0.968294 0.202216
v -0.355105 1.073524 0.202242
v -0.345871 1.073485 0.324540
v -0.342655 0.968646 0.299225
v -0.318714 1.073433 0.443183
v -0.313788 0.968688 0.408492
v -0.271167 1.073371 0.549593
v -0.265029 0.968851 0.520444
v -0.200799 1.073303 0.635537
v -0.194526 0.968970 0.619901
v -0.194526 0.968970 0.619901
v -0.200799 1.073303 0.635537
v -0.106183 1.073234 0.692560
v -0.194526 0.968970 0.619901
v -0.106183 1.073234 0.692560
v -0.101571 0.969061 0.691082
v -0.101571 0.969061 0.691082
v -0.106183 1.073234 0.692560
v 0.010186 1.072881 0.712240
v 0.010224 0.969149 0.717677
v 0.121727 0.969061 0.689523
v 0.126359 1.073234 0.690937
v 0.213680 0.968970 0.617051
v 0.220170 1.073303 0.632598
v 0.282787 0.968851 0.516619
v 0.289331 1.073371 0.545680
v 0.329978 0.968688 0.403997
v 0.282787 0.968851 0.516619
v 0.289331 1.073371 0.545680
v 0.335388 1.073433 0.438616
v 0.357317 0.968646 0.294338
v 0.360885 1.073485 0.319605
v 0.364580 0.968294 0.197218
v 0.368405 1.073524 0.197191
v 0.353160 1.073485 0.084624
v 0.351100 0.968123 0.107659
v 0.321777 1.073433 -0.017088
v 0.318238 0.967584 0.011644
v 0.272479 1.073371 -0.100334
v 0.267363 0.967190 -0.078205
v 0.267363 0.967190 -0.078205
v 0.272479 1.073371 -0.100334
v 0.203398 1.073303 -0.162584
v 0.267363 0.967190 -0.078205
v 0.203398 1.073303 -0.162584
v 0.197680 0.966832 -0.151540
v 0.197680 0.966832 -0.151540
v 0.203398 1.073303 -0.162584
v 0.113143 1.073234 -0.201551
v 0.108773 0.966586 -0.200548
v -0.636799 1.784266 -0.354272
v -0.593855 1.784266 -0.306954
v -0.601520 1.849676 -0.300041
v -0.644459 1.849676 -0.347360
v -0.644459 1.849676 -0.347360
v -0.601520 1.849676 -0.300041
v -0.601852 1.889823 -0.347657
v -0.604994 1.889823 -0.797755
v -0.647601 1.849676 -0.797457
v -0.647601 1.849676 -0.797457
v -0.639888 1.784266 -0.797511
v -0.636799 1.784266 -0.354272
v -0.639888 1.784266 -0.797511
v -0.591790 1.784266 -0.778515
v -0.588971 1.784266 -0.373939
v -0.593855 1.784266 -0.306954
v -0.549281 1.784266 -0.330751
v -0.605327 1.849676 -0.845371
v -0.647601 1.849676 -0.797457
v -0.604994 1.889823 -0.797755
v -0.597614 1.784266 -0.845425
v -0.639888 1.784266 -0.797511
v -0.597614 1.784266 -0.845425
v -0.552713 1.784266 -0.822253
v -0.605327 1.849676 -0.845371
v 0.591517 1.889823 -0.806109
v 0.591184 1.849676 -0.853725
v 0.591184 1.849676 -0.853725
v 0.584098 1.784266 -0.853675
v 0.584098 1.784266 -0.853675
v 0.539524 1.784266 -0.829879
v 0.594659 1.889823 -0.356011
v 0.634124 1.849676 -0.806406
v 0.591184 1.849676 -0.853725
v 0.591517 1.889823 -0.806109
v 0.634124 1.849676 -0.806406
v 0.627037 1.784266 -0.806357
v 0.584098 1.784266 -0.853675
v 0.627037 1.784266 -0.806357
v 0.579209 1.784266 -0.786690
v 0.594992 1.849676 -0.308395
v 0.637266 1.849676 -0.356309
v 0.637266 1.849676 -0.356309
v 0.587857 1.784266 -0.315205
v 0.594992 1.849676 -0.308395
v -0.601520 1.849676 -0.300041
v -0.593855 1.784266 -0.306954
v 0.587857 1.784266 -0.315205
v 0.542956 1.784266 -0.338377
v 0.594992 1.849676 -0.308395
v 0.587857 1.784266 -0.315205
v 0.630132 1.784266 -0.363119
v 0.630132 1.784266 -0.363119
v 0.582033 1.784266 -0.382115
v 0.127984 1.071961 -0.547218
v 0.003460 1.072876 -0.214436
v 0.113143 1.073234 -0.201551
v 0.203398 1.073303 -0.162584
v 0.361207 1.071961 -0.449624
v 0.272479 1.073371 -0.100334
v -0.124885 1.071961 -0.545452
v -0.105761 1.073234 -0.203473
v -0.195458 1.073303 -0.163249
v -0.356934 1.071961 -0.444610
v -0.263663 1.073371 -0.100040
v 0.435186 1.072653 -0.026789
v 0.321777 1.073433 -0.017088
v 0.353160 1.073485 0.084624
v 0.477598 1.072653 0.087757
v -0.425002 1.072653 -0.020783
v -0.311794 1.073433 -0.016114
v -0.341753 1.073485 0.086026
v -0.465810 1.072653 0.094344
v 0.368405 1.073524 0.197191
v 0.495070 1.072653 0.196307
v 0.486485 1.072653 0.310486
v 0.360885 1.073485 0.319605
v 0.452583 1.072653 0.444493
v 0.335388 1.073433 0.438616
v 0.391130 1.072666 0.582153
v 0.289331 1.073371 0.545680
v 0.293325 1.072689 0.710317
v 0.220170 1.073303 0.632598
v 0.171054 1.072733 0.795676
v 0.126359 1.073234 0.690937
v -0.355105 1.073524 0.202242
v -0.481770 1.072653 0.203127
v -0.471586 1.072653 0.317175
v -0.345871 1.073485 0.324540
v -0.435815 1.072653 0.450695
v -0.318714 1.073433 0.443183
v -0.372447 1.072666 0.587484
v -0.271167 1.073371 0.549593
v -0.277841 1.072689 0.709886
v -0.200799 1.073303 0.635537
v -0.149411 1.072733 0.797913
v -0.106183 1.073234 0.692560
v 0.011013 1.072814 0.830783
v 0.010186 1.072881 0.712240
v 0.186944 0.985285 0.698022
v 0.008306 0.885947 0.712925
v 0.008669 0.985285 0.764834
v -0.170521 0.985285 0.700518
v 0.194550 0.885947 0.647595
v 0.342081 0.985285 0.509323
v -0.178831 0.885947 0.650202
v -0.328279 0.985285 0.514003
v -0.170521 0.985285 0.700518
v -0.178831 0.885947 0.650202
v 0.008306 0.885947 0.712925
v 0.194550 0.885947 0.647595
v 0.008942 0.642590 0.203816
v -0.178831 0.885947 0.650202
v 0.330549 0.885947 0.410016
v 0.342081 0.985285 0.509323
v 0.330549 0.885947 0.410016
v 0.194550 0.885947 0.647595
v -0.318135 0.885947 0.414545
v -0.318135 0.885947 0.414545
v 0.409022 0.985285 0.260010
v -0.398693 0.985285 0.265649
v 0.357224 0.885947 0.128674
v 0.357224 0.885947 0.128674
v 0.373110 0.985285 0.021485
v 0.256213 0.985285 -0.152091
v -0.348735 0.885947 0.133602
v -0.348735 0.885947 0.133602
v -0.366116 0.985285 0.026646
v 0.189014 0.885965 -0.145258
v 0.189014 0.885965 -0.145258
v 0.189014 0.885965 -0.145258
v 0.256213 0.985285 -0.152091
v 0.061254 0.985285 -0.239334
v -0.251316 0.885947 -0.092817
v -0.251316 0.885947 -0.092817
v -0.253361 0.985285 -0.151607
v -0.058198 0.885947 -0.213784
v -0.253361 0.985285 -0.151607
v -0.251316 0.885947 -0.092817
v -0.058198 0.885947 -0.213784
v -0.057932 0.985285 -0.238502
v 0.066025 0.885947 -0.218767
v 0.066025 0.885947 -0.218767
vn -1.0000 -0.0000 0.0070
vn 0.0058 0.5554 0.8316
vn -0.0000 1.0000 -0.0000
vn -0.0060 0.5161 -0.8565
vn -0.0059 0.5160 -0.8566
vn 1.0000 -0.0000 -0.0070
vn -0.2462 -0.7716 -0.5866
vn -0.2461 -0.7716 -0.5866
vn -0.9890 -0.1450 0.0299
vn -0.9895 -0.1443 0.0015
vn -0.9895 -0.1443 0.0025
vn -0.9907 -0.1363 -0.0009
vn -0.9907 -0.1364 -0.0010
vn -0.9917 -0.1286 0.0070
vn -0.6986 -0.0644 0.7126
vn -0.6983 -0.0639 0.7129
vn -0.6983 -0.0638 0.7130
vn -0.6983 -0.0638 0.7129
vn -0.3406 0.9173 0.2062
vn -0.3275 0.8634 0.3838
vn -0.3412 0.9208 0.1887
vn -0.3427 0.9362 0.0777
vn -0.3428 0.9362 0.0777
vn -0.0337 -0.9994 -0.0090
vn -0.0386 -0.9876 0.1525
vn -0.0393 -0.9833 0.1778
vn -0.0459 -0.8691 0.4924
vn -0.0393 -0.9833 0.1779
vn -0.0386 -0.9875 0.1526
vn 0.9904 0.0960 0.0991
vn 0.9904 0.0965 0.0990
vn -0.4244 0.4714 -0.7731
vn 0.0702 -0.9928 -0.0969
vn 0.0650 -0.1134 -0.9914
vn 0.9846 -0.1470 -0.0952
vn 0.0795 -0.0651 -0.9947
vn 0.9891 -0.1065 -0.1014
vn 0.9907 -0.1051 0.0863
vn 0.9858 -0.1460 0.0826
vn 0.0715 -0.9928 0.0959
vn 0.0785 -0.0999 0.9919
vn 0.0716 -0.9928 0.0959
vn 0.9858 -0.1459 0.0825
vn 0.0785 -0.0998 0.9919
vn 0.0939 -0.0509 0.9943
vn 0.0069 -0.0982 0.9951
vn 0.0940 -0.0509 0.9943
vn 0.0070 -0.0422 0.9991
vn -0.0796 -0.0516 0.9955
vn 0.0007 -0.9949 0.1011
vn -0.0007 -0.9949 -0.1011
vn -0.0709 -0.9929 -0.0959
vn -0.0695 -0.9929 0.0970
vn -0.0630 -0.0999 0.9930
vn -0.9833 -0.1543 0.0965
vn -0.0795 -0.0517 0.9955
vn -0.0695 -0.9929 0.0969
vn -0.9885 -0.1138 0.0996
vn -0.9895 -0.1152 -0.0871
vn -0.9845 -0.1552 -0.0815
vn -0.0708 -0.9929 -0.0959
vn -0.0929 -0.0658 -0.9935
vn -0.0772 -0.1134 -0.9905
vn -0.0070 -0.0565 -0.9984
vn -0.0069 -0.1116 -0.9937
vn -0.0772 -0.1133 -0.9906
vn 0.0650 -0.1133 -0.9914
vn -0.9248 -0.3790 -0.0323
vn -0.9995 -0.0006 -0.0305
vn -0.9975 0.0005 -0.0709
vn -0.9199 -0.3877 -0.0589
vn -0.9199 -0.3878 -0.0589
vn -0.9975 0.0006 -0.0709
vn -0.0498 0.0014 -0.9988
vn -0.0371 -0.3392 -0.9400
vn -0.0450 -0.9988 0.0207
vn -0.0404 -0.9990 -0.0186
vn -0.0404 -0.9990 -0.0187
vn -0.0162 -0.3352 0.9420
vn -0.9249 -0.3789 -0.0323
vn -0.0450 -0.9988 0.0206
vn -0.0265 -0.0011 0.9996
vn 0.0455 -0.9988 0.0198
vn 0.0454 -0.9988 0.0199
vn 0.0304 -0.3407 0.9397
vn 0.0405 0.0011 0.9992
vn 0.9243 -0.3787 -0.0479
vn 0.9990 0.0006 -0.0445
vn 0.0401 -0.9990 -0.0194
vn 0.9243 -0.3786 -0.0479
vn 0.0400 -0.9990 -0.0193
vn 0.0226 -0.3341 -0.9423
vn 0.0401 -0.9990 -0.0193
vn 0.9183 -0.3888 -0.0744
vn 0.9990 0.0006 -0.0444
vn 0.9964 -0.0005 -0.0849
vn 0.0358 -0.0014 -0.9994
vn 0.9243 0.3789 -0.0452
vn 0.9190 0.3877 -0.0718
vn 0.0239 0.3392 -0.9404
vn 0.0453 0.9988 0.0200
vn 0.9243 0.3790 -0.0452
vn 0.9190 0.3878 -0.0718
vn 0.0402 0.9990 -0.0193
vn 0.0403 0.9989 -0.0230
vn 0.0294 0.3352 0.9417
vn -0.0452 0.9988 0.0204
vn -0.0452 0.9988 0.0205
vn -0.0173 0.3407 0.9400
vn -0.9249 0.3787 -0.0350
vn -0.0404 0.9990 -0.0188
vn 0.0402 0.9990 -0.0192
vn 0.0240 0.3392 -0.9404
vn -0.0358 0.3341 -0.9419
vn -0.9192 0.3889 -0.0615
vn -0.9193 0.3888 -0.0615
vn -0.9249 0.3786 -0.0350
vn -0.9193 0.3888 -0.0616
vn -0.3869 -0.1868 -0.9030
vn -0.1637 -0.2218 -0.9613
vn -0.0536 -0.2430 -0.9686
vn -0.3957 0.0052 -0.9184
vn -0.2047 -0.0003 -0.9788
vn 0.9175 -0.3928 -0.0618
vn 0.9780 -0.1591 -0.1348
vn 0.9619 -0.1603 -0.2213
vn 0.8444 -0.4364 -0.3108
vn 0.8140 -0.5806 0.0178
vn 0.9176 -0.3928 -0.0618
vn 0.9041 -0.3124 -0.2916
vn 0.9214 -0.2811 -0.2684
vn 0.9471 -0.1567 -0.2800
vn 0.6584 -0.6592 -0.3632
vn 0.9192 -0.3451 -0.1896
vn 0.6583 -0.6593 -0.3632
vn 0.9614 -0.2707 -0.0498
vn 0.9871 -0.1554 -0.0380
vn 0.9679 -0.1632 0.1911
vn 0.6077 -0.7821 -0.1381
vn 0.9594 -0.2782 -0.0454
vn 0.8525 -0.5207 -0.0465
vn 0.6077 -0.7820 -0.1381
vn 0.9422 -0.2729 0.1944
vn 0.9191 -0.1739 0.3535
vn 0.6170 -0.7640 0.1890
vn 0.6170 -0.7639 0.1890
vn 0.8847 -0.2208 0.4107
vn 0.9595 -0.2782 -0.0454
vn 0.7869 -0.5874 0.1893
vn 0.7868 -0.5875 0.1894
vn 0.8716 -0.2862 0.3980
vn 0.8570 -0.1711 0.4861
vn 0.3750 -0.7775 0.5049
vn 0.3677 -0.4419 0.8182
vn 0.8847 -0.2207 0.4107
vn 0.3749 -0.7775 0.5049
vn 0.6860 -0.6114 0.3944
vn 0.6860 -0.6114 0.3945
vn 0.7436 -0.2990 0.5981
vn 0.6625 -0.1692 0.7298
vn 0.0042 -0.8006 0.5992
vn -0.3563 -0.4408 0.8239
vn 0.3926 -0.6616 0.6388
vn 0.3927 -0.6616 0.6388
vn 0.4031 -0.3332 0.8523
vn 0.7435 -0.2990 0.5981
vn 0.6624 -0.1691 0.7298
vn 0.3927 -0.6616 0.6389
vn 0.4228 -0.1725 0.8896
vn 0.0052 -0.6644 0.7474
vn 0.0052 -0.6644 0.7473
vn 0.0066 -0.3441 0.9389
vn 0.0069 -0.1673 0.9859
vn -0.4130 -0.1720 0.8944
vn -0.4041 -0.3367 0.8505
vn -0.6534 -0.1692 0.7378
vn -0.3979 -0.7533 0.5236
vn -0.8473 -0.3445 0.4042
vn -0.3792 -0.6728 0.6352
vn -0.3792 -0.6727 0.6353
vn -0.7210 -0.3488 0.5987
vn -0.7211 -0.3488 0.5986
vn -0.6535 -0.1692 0.7378
vn -0.8515 -0.1721 0.4954
vn -0.6583 -0.7299 0.1839
vn -0.8473 -0.3446 0.4042
vn -0.9183 -0.3946 -0.0308
vn -0.6725 -0.6213 0.4021
vn -0.3793 -0.6728 0.6353
vn -0.6726 -0.6213 0.4021
vn -0.8497 -0.3458 0.3979
vn -0.9141 -0.1739 0.3663
vn -0.6583 -0.7299 0.1838
vn -0.6426 -0.7596 -0.1008
vn -0.9227 -0.3506 -0.1606
vn -0.7711 -0.5938 0.2300
vn -0.9216 -0.3210 0.2182
vn -0.9651 -0.1632 0.2046
vn -0.6700 -0.6550 -0.3495
vn -0.9226 -0.2854 -0.2595
vn -0.8538 -0.5206 0.0073
vn -0.6700 -0.6549 -0.3495
vn -0.9576 -0.2873 -0.0204
vn -0.9876 -0.1554 -0.0242
vn -0.9509 -0.1567 -0.2668
vn -0.9251 -0.2811 -0.2555
vn -0.9649 -0.1603 -0.2078
vn -0.9226 -0.2855 -0.2595
vn -0.6700 -0.6549 -0.3496
vn -0.8490 -0.4358 -0.2987
vn -0.8490 -0.4357 -0.2987
vn -0.9226 -0.2854 -0.2596
vn -0.8143 -0.5797 0.0281
vn -0.9798 -0.1591 -0.1211
vn -0.9183 -0.3928 -0.0490
vn 0.9956 0.0013 -0.0934
vn 0.9687 -0.0053 -0.2481
vn 0.9843 0.0396 -0.1721
vn 0.9839 -0.0434 -0.1735
vn 0.9895 0.0038 -0.1445
vn 0.9794 -0.1374 -0.1481
vn 0.9344 0.0402 -0.3539
vn 0.9827 -0.1756 -0.0588
vn 0.9949 0.0629 -0.0786
vn 0.9865 0.1215 -0.1099
vn 0.9853 0.1420 0.0954
vn 0.9120 0.1100 0.3952
vn 0.7516 0.1163 0.6492
vn 0.7516 0.1164 0.6493
vn 0.9120 0.1100 0.3953
vn 0.3968 0.0702 0.9152
vn 0.4009 0.1216 0.9080
vn -0.3624 0.1139 0.9250
vn -0.3711 0.0636 0.9264
vn -0.7099 0.1098 0.6957
vn -0.8883 0.1039 0.4474
vn -0.8883 0.1039 0.4473
vn -0.9828 0.1597 0.0930
vn -0.7100 0.1098 0.6956
vn -0.9960 0.0702 -0.0551
vn -0.9816 0.1603 -0.1037
vn -0.9526 0.1002 -0.2872
vn -0.9881 -0.0474 -0.1464
vn -0.9817 -0.1315 -0.1375
vn -0.9967 0.0047 -0.0816
vn -0.9872 0.0409 -0.1545
vn -0.9721 -0.0053 -0.2346
vn -0.9833 -0.0740 -0.1661
vn -0.9844 -0.1463 -0.0974
vn -0.8473 -0.3446 0.4041
vn 0.3677 -0.4419 0.8183
vn 0.8140 -0.5806 0.0179
vn 0.9175 -0.3929 -0.0618
vn -0.0068 0.2234 -0.9747
vn -0.0065 0.3364 -0.9417
vn -0.0068 0.2233 -0.9747
vn -0.0066 0.3364 -0.9417
vn -0.0070 0.0336 -0.9994
vn -0.0070 0.0334 -0.9994
vn 0.0400 -0.2430 -0.9692
vn 0.1503 -0.2219 -0.9634
vn 0.3746 -0.1869 -0.9082
vn 0.3831 0.0051 -0.9237
vn 0.1911 -0.0003 -0.9816
vn 0.2820 0.0288 0.9590
vn -0.0090 -0.0095 0.9999
vn -0.0087 -0.0099 0.9999
vn 0.2901 0.0308 0.9565
vn 0.5845 0.1100 0.8039
vn 0.5823 0.1093 0.8056
vn 0.7968 0.1513 0.5850
vn 0.7835 0.1507 0.6029
vn 0.9184 0.1236 0.3759
vn 0.7835 0.1507 0.6028
vn 0.9057 0.1312 0.4030
vn 0.9782 0.0679 0.1963
vn 0.9728 0.0754 0.2189
vn 0.9989 0.0430 0.0176
vn 0.9989 0.0429 0.0173
vn 0.9815 0.0802 -0.1738
vn 0.9860 0.0712 -0.1511
vn 0.9313 0.1441 -0.3346
vn 0.9430 0.1324 -0.3053
vn 0.8416 0.1731 -0.5116
vn 0.8569 0.1723 -0.4858
vn 0.6804 0.1368 -0.7200
vn 0.6887 0.1397 -0.7115
vn 0.6886 0.1397 -0.7115
vn 0.6803 0.1368 -0.7200
vn 0.3914 0.0431 -0.9192
vn 0.6877 0.1409 -0.7122
vn 0.3831 0.0405 -0.9228
vn 0.3830 0.0405 -0.9228
vn 0.3913 0.0430 -0.9192
vn -0.0070 -0.0145 -0.9999
vn -0.3958 0.0405 -0.9174
vn -0.4040 0.0430 -0.9137
vn -0.6985 0.1397 -0.7018
vn -0.6903 0.1368 -0.7104
vn -0.8636 0.1722 -0.4738
vn -0.8487 0.1732 -0.4998
vn -0.9472 0.1324 -0.2921
vn -0.8637 0.1722 -0.4738
vn -0.8487 0.1731 -0.4997
vn -0.9359 0.1441 -0.3216
vn -0.9880 0.0712 -0.1373
vn -0.9838 0.0802 -0.1601
vn -0.9985 0.0433 0.0334
vn -0.9985 0.0433 0.0331
vn -0.9686 0.0761 0.2368
vn -0.9741 0.0687 0.2152
vn -0.9000 0.1312 0.4156
vn -0.9130 0.1236 0.3887
vn -0.7750 0.1507 0.6137
vn -0.7886 0.1513 0.5960
vn -0.7885 0.1513 0.5961
vn -0.5710 0.1093 0.8136
vn -0.7886 0.1513 0.5961
vn -0.5734 0.1083 0.8121
vn -0.5732 0.1099 0.8120
vn -0.5710 0.1093 0.8137
vn -0.2912 0.0309 0.9562
vn -0.2839 0.0290 0.9584
vn -0.8387 -0.5396 0.0741
vn -0.0282 -0.2371 0.9711
vn -0.0214 0.3716 0.9282
vn -0.9484 0.3089 0.0717
vn -0.9484 0.3088 0.0717
vn -0.0214 0.3715 0.9282
vn -0.0299 0.9964 0.0790
vn -0.0310 0.9964 -0.0785
vn -0.9522 0.3006 -0.0538
vn -0.9522 0.3006 -0.0537
vn -0.8317 -0.5509 -0.0690
vn -0.8317 -0.5509 -0.0691
vn -0.0000 -1.0000 -0.0000
vn -0.0283 -0.2372 0.9710
vn -0.0346 0.4203 -0.9067
vn -0.0309 0.9964 -0.0785
vn -0.0409 -0.1380 -0.9896
vn -0.0408 -0.1380 -0.9896
vn -0.0347 0.4203 -0.9067
vn 0.0298 0.9964 -0.0790
vn 0.0218 0.4192 -0.9076
vn 0.0218 0.4192 -0.9077
vn 0.0274 -0.1384 -0.9900
vn 0.0275 -0.1384 -0.9900
vn 0.0310 0.9964 0.0786
vn 0.9498 0.3057 -0.0671
vn 0.0217 0.4192 -0.9077
vn 0.8342 -0.5455 -0.0807
vn 0.8342 -0.5455 -0.0806
vn 0.0341 0.3703 0.9283
vn 0.9477 0.3138 0.0585
vn 0.0421 -0.2375 0.9705
vn -0.0283 -0.2372 0.9711
vn 0.0421 -0.2376 0.9705
vn 0.0420 -0.2375 0.9705
vn 0.8432 -0.5340 0.0624
vn 0.8432 -0.5340 0.0625
vn 0.0003 1.0000 -0.0033
vn -0.0000 1.0000 -0.0036
vn 0.0005 1.0000 -0.0038
vn 0.0017 1.0000 -0.0036
vn 0.0024 1.0000 -0.0035
vn 0.0047 1.0000 -0.0032
vn -0.0003 1.0000 -0.0033
vn -0.0006 1.0000 -0.0038
vn -0.0015 1.0000 -0.0038
vn -0.0025 1.0000 -0.0035
vn -0.0048 1.0000 -0.0032
vn 0.0063 1.0000 -0.0029
vn 0.0062 1.0000 -0.0033
vn 0.0067 1.0000 -0.0020
vn 0.0068 1.0000 -0.0017
vn -0.0065 1.0000 -0.0028
vn -0.0061 1.0000 -0.0029
vn -0.0068 1.0000 -0.0019
vn -0.0068 1.0000 -0.0016
vn 0.0068 1.0000 -0.0003
vn 0.0069 1.0000 -0.0003
vn 0.0068 1.0000 0.0011
vn 0.0067 1.0000 0.0013
vn 0.0066 1.0000 0.0022
vn 0.0064 1.0000 0.0025
vn 0.0059 1.0000 0.0034
vn 0.0054 1.0000 0.0036
vn 0.0042 1.0000 0.0043
vn 0.0034 1.0000 0.0042
vn 0.0013 1.0000 0.0036
vn 0.0007 1.0000 0.0034
vn -0.0068 1.0000 -0.0002
vn -0.0069 1.0000 -0.0002
vn -0.0068 1.0000 0.0012
vn -0.0067 1.0000 0.0014
vn -0.0066 1.0000 0.0023
vn -0.0063 1.0000 0.0026
vn -0.0058 1.0000 0.0035
vn -0.0053 1.0000 0.0037
vn -0.0041 1.0000 0.0043
vn -0.0034 1.0000 0.0042
vn -0.0010 1.0000 0.0034
vn -0.0007 1.0000 0.0034
vn -0.0000 1.0000 0.0023
vn -0.0000 1.0000 0.0026
vn -0.5357 0.4332 -0.7248
vn -0.0041 0.7846 -0.6199
vn -0.0062 0.4476 -0.8942
vn 0.5255 0.4333 -0.7322
vn -0.4365 0.7519 -0.4940
vn -0.8047 0.4272 -0.4123
vn 0.4285 0.7545 -0.4970
vn 0.7989 0.4271 -0.4235
vn 0.5256 0.4332 -0.7321
vn 0.4286 0.7545 -0.4970
vn -0.0041 0.7847 -0.6199
vn -0.0212 0.9997 0.0105
vn 0.4285 0.7546 -0.4970
vn -0.6605 0.7190 -0.2163
vn -0.8047 0.4272 -0.4122
vn -0.6606 0.7189 -0.2163
vn -0.4366 0.7519 -0.4941
vn 0.6522 0.7244 -0.2233
vn 0.6523 0.7243 -0.2233
vn -0.8873 0.4444 -0.1238
vn 0.8855 0.4443 -0.1361
vn -0.6598 0.7350 0.1562
vn -0.6598 0.7351 0.1562
vn -0.7428 0.5261 0.4141
vn -0.6572 0.4930 0.5701
vn 0.6772 0.7296 0.0955
vn 0.6771 0.7296 0.0955
vn 0.8311 0.4105 0.3751
vn -0.4979 0.7077 0.5012
vn -0.4978 0.7078 0.5012
vn -0.2449 0.2486 0.9371
vn 0.5251 0.7182 0.4566
vn 0.6121 0.3965 0.6842
vn 0.2374 0.7131 0.6596
vn 0.6120 0.3966 0.6843
vn 0.2975 0.3123 0.9022
vn -0.1916 0.6870 0.7010
vt 0.244759 0.657883
vt 0.254623 0.672038
vt 0.254623 0.663836
vt 0.244759 0.678622
vt 0.613245 0.712307
vt 0.623228 0.683229
vt 0.613245 0.683347
vt 0.623228 0.712190
vt 0.348094 0.613643
vt 0.356305 0.584685
vt 0.348103 0.584685
vt 0.356296 0.613643
vt 0.381499 0.396100
vt 0.371343 0.421731
vt 0.381499 0.423498
vt 0.371343 0.394334
vt 0.264489 0.678622
vt 0.254623 0.663918
vt 0.254623 0.672049
vt 0.264489 0.658063
vt 0.351897 0.643408
vt 0.356108 0.651740
vt 0.356931 0.645480
vt 0.351068 0.650677
vt 0.632756 0.713359
vt 0.629257 0.720415
vt 0.639976 0.716842
vt 0.633543 0.725908
vt 0.638353 0.724974
vt 0.636625 0.743453
vt 0.639976 0.742780
vt 0.636779 0.746362
vt 0.279782 0.678622
vt 0.279782 0.673986
vt 0.276832 0.674615
vt 0.356305 0.622690
vt 0.356177 0.613643
vt 0.351068 0.614930
vt 0.351244 0.622700
vt 0.351068 0.640537
vt 0.353860 0.643408
vt 0.354122 0.678622
vt 0.356931 0.675764
vt 0.356818 0.657951
vt 0.351795 0.657914
vt 0.271079 0.658360
vt 0.266483 0.678392
vt 0.271079 0.678622
vt 0.264489 0.658064
vt 0.276832 0.678622
vt 0.271480 0.670323
vt 0.271079 0.677370
vt 0.276832 0.669261
vt 0.916684 0.999999
vt 0.927884 0.989935
vt 0.915397 0.989633
vt 0.935775 0.820209
vt 0.923288 0.819907
vt 0.819643 0.819907
vt 0.828340 0.989633
vt 0.829627 1.000000
vt 0.818507 0.989935
vt 0.658821 0.990007
vt 0.658975 1.000000
vt 0.670231 0.989931
vt 0.809810 0.820209
vt 0.000000 0.516912
vt 0.000000 0.638016
vt 0.169134 0.655489
vt 0.670217 0.868810
vt 0.169134 0.517096
vt 0.169134 0.375858
vt 0.658808 0.868886
vt 0.571007 0.990007
vt 0.570993 0.868886
vt 0.570979 0.746438
vt 0.658794 0.746438
vt 0.670203 0.746362
vt 0.000000 0.394481
vt 0.913270 0.671840
vt 0.924701 0.672201
vt 0.931629 0.502351
vt 0.913438 0.682264
vt 0.920198 0.501990
vt 0.815656 0.501990
vt 0.825458 0.671840
vt 0.825627 0.682263
vt 0.179171 0.643214
vt 0.347736 0.655489
vt 0.347198 0.642315
vt 0.178633 0.630040
vt 0.169134 0.633833
vt 0.347470 0.508696
vt 0.178868 0.514214
vt 0.559889 0.868810
vt 0.559875 0.746362
vt 0.347736 0.377770
vt 0.179101 0.399643
vt 0.559903 0.989931
vt 0.775835 0.682189
vt 0.783007 0.682205
vt 0.783025 0.432328
vt 0.775870 0.432304
vt 0.136225 0.190978
vt 0.143383 0.190647
vt 0.143158 0.184299
vt 0.136000 0.184630
vt 0.770481 0.682264
vt 0.131059 0.186171
vt 0.770515 0.432378
vt 0.860466 0.064358
vt 0.860545 0.059106
vt 0.855375 0.064274
vt 0.867712 0.058881
vt 0.867634 0.064134
vt 0.855375 0.193523
vt 0.599595 0.432967
vt 0.728861 0.432953
vt 0.714594 0.182813
vt 0.860466 0.193607
vt 0.867634 0.193383
vt 0.860545 0.198696
vt 0.867712 0.198471
vt 0.614768 0.182825
vt 0.375833 0.678622
vt 0.381157 0.677961
vt 0.381612 0.427976
vt 0.136000 0.090203
vt 0.131059 0.091744
vt 0.376287 0.428637
vt 0.376442 0.423498
vt 0.368674 0.678564
vt 0.369116 0.428638
vt 0.369271 0.423499
vt 0.143158 0.089871
vt 0.361516 0.678506
vt 0.361945 0.428640
vt 0.362100 0.423501
vt 0.804754 0.999920
vt 0.809810 1.000000
vt 0.795546 0.749855
vt 0.356931 0.427938
vt 0.790490 0.749774
vt 0.874802 0.193158
vt 0.874880 0.198246
vt 0.880050 0.193078
vt 0.880050 0.063829
vt 0.675516 0.999876
vt 0.874802 0.063910
vt 0.874880 0.058656
vt 0.690686 0.749741
vt 0.670231 0.999953
vt 0.155707 0.090913
vt 0.150316 0.089540
vt 0.150316 0.183967
vt 0.155707 0.185340
vt 0.685403 0.749818
vt 0.150542 0.190316
vt 0.790179 0.682221
vt 0.790179 0.432352
vt 0.599595 0.659964
vt 0.662907 0.658734
vt 0.659704 0.545277
vt 0.600117 0.682264
vt 0.663394 0.681016
vt 0.518252 0.396480
vt 0.495954 0.396536
vt 0.494975 0.504124
vt 0.546755 0.494755
vt 0.047006 0.181219
vt 0.098428 0.124515
vt 0.047006 0.083180
vt 0.095427 0.175149
vt 0.542369 0.528905
vt 0.494587 0.534048
vt 0.588116 0.485349
vt 0.581391 0.523951
vt 0.110700 0.214752
vt 0.131059 0.189036
vt 0.077398 0.181219
vt 0.536317 0.561107
vt 0.494392 0.561616
vt 0.494392 0.589675
vt 0.059787 0.211631
vt 0.089347 0.241903
vt 0.571544 0.559226
vt 0.599595 0.556488
vt 0.541571 0.593608
vt 0.494573 0.621779
vt 0.044044 0.248097
vt 0.846044 0.398547
vt 0.875157 0.397645
vt 0.871048 0.360335
vt 0.579017 0.594669
vt 0.020699 0.223545
vt 0.544929 0.630319
vt 0.494959 0.653833
vt 0.844504 0.432304
vt 0.065323 0.302646
vt 0.060966 0.265460
vt 0.034487 0.292266
vt 0.004918 0.265079
vt 0.582472 0.631983
vt 0.546225 0.664751
vt 0.495624 0.682264
vt 0.041292 0.337911
vt 0.077251 0.315113
vt -0.000000 0.310763
vt 0.581505 0.662878
vt 0.806382 0.166592
vt 0.804977 0.198696
vt 0.855375 0.194004
vt 0.770494 0.170969
vt 0.855013 0.163583
vt 0.777329 0.123042
vt 0.018954 0.359543
vt 0.811084 0.123430
vt 0.854880 0.123547
vt 0.855002 0.083224
vt 0.806370 0.079812
vt 0.855375 0.050768
vt 0.086504 0.346635
vt 0.114169 0.321066
vt 0.062281 0.375858
vt 0.770481 0.080891
vt 0.804956 0.046637
vt 0.442885 0.665080
vt 0.493609 0.682264
vt 0.494156 0.650992
vt 0.314771 0.377770
vt 0.314686 0.339880
vt 0.285593 0.341280
vt 0.291261 0.304263
vt 0.108123 0.372948
vt 0.407243 0.667557
vt 0.406196 0.631944
vt 0.131059 0.339045
vt 0.444044 0.627000
vt 0.494392 0.616307
vt -0.000000 0.148594
vt 0.032059 0.181219
vt 0.042043 0.142731
vt 0.001755 0.113751
vt 0.381612 0.592656
vt 0.409480 0.591423
vt 0.388792 0.555635
vt 0.447209 0.587977
vt 0.494392 0.582611
vt 0.047006 0.107861
vt -0.000000 0.081162
vt 0.416956 0.555006
vt 0.406813 0.521284
vt 0.452262 0.554422
vt 0.494209 0.553955
vt 0.493806 0.526781
vt 0.445957 0.523027
vt 0.493165 0.498170
vt 0.613245 0.685078
vt 0.585335 0.728216
vt 0.613245 0.746362
vt 0.441271 0.490834
vt 0.401617 0.154654
vt 0.450375 0.160513
vt 0.398564 0.104041
vt 0.491367 0.392336
vt 0.450375 0.062492
vt 0.469074 0.392291
vt 0.996360 0.246250
vt 1.000000 0.198696
vt 0.962017 0.209535
vt 0.928707 0.290906
vt 0.923457 0.211353
vt 0.993096 0.295931
vt 0.990898 0.320389
vt 0.887472 0.206582
vt 0.924765 0.343016
vt 0.988558 0.348752
vt 0.986151 0.384005
vt 0.920932 0.400204
vt 0.984444 0.413234
vt 0.683063 0.182460
vt 0.681031 0.117981
vt 0.652209 0.118375
vt 0.660154 0.182813
vt 0.627747 0.182813
vt 0.632987 0.118375
vt 0.599595 0.182460
vt 0.601369 0.117981
vt 0.239757 0.341495
vt 0.175297 0.320248
vt 0.175764 0.351339
vt 0.238529 0.294529
vt 0.174365 0.284442
vt 0.173309 0.260144
vt 0.236633 0.235545
vt 0.559875 0.682473
vt 0.574134 0.746362
vt 0.585335 0.682473
vt 0.171981 0.235429
vt 0.170808 0.184324
vt 0.206630 0.150173
vt 0.169134 0.137988
vt 0.245079 0.153822
vt 0.330862 0.235713
vt 0.281229 0.150713
vt 0.359656 0.184123
vt 0.398564 0.137988
vt 0.308679 0.269200
vt 0.602758 0.072101
vt 0.633018 0.068304
vt 0.650270 0.068304
vt 0.679706 0.072101
vt 0.855135 0.325564
vt 0.834279 0.292016
vt 0.807661 0.238795
vt 0.770481 0.198696
vt 0.700709 0.470640
vt 0.701089 0.432967
vt 0.666298 0.432972
vt 0.659306 0.470640
vt 0.658418 0.509186
vt 0.699820 0.509186
vt 0.701107 0.545277
vt 0.723060 0.658735
vt 0.770429 0.659965
vt 0.770481 0.682264
vt 0.723382 0.681016
vt 0.888420 0.743306
vt 0.888426 0.769534
vt 0.915072 0.769621
vt 0.915169 0.742262
vt 0.888307 0.721325
vt 0.915057 0.719881
vt 0.888108 0.704319
vt 0.914832 0.702955
vt 0.157976 0.217454
vt 0.157650 0.196690
vt 0.131059 0.190978
vt 0.131454 0.210147
vt 0.158135 0.240313
vt 0.131726 0.234472
vt 0.158238 0.263043
vt 0.131887 0.262872
vt 0.131903 0.293568
vt 0.158145 0.287437
vt 0.131787 0.323980
vt 0.157987 0.315580
vt 0.131514 0.352063
vt 0.157651 0.345082
vt 0.131059 0.375858
vt 0.157157 0.372237
vt 0.641274 0.719960
vt 0.639976 0.746362
vt 0.657652 0.746362
vt 0.613245 0.712307
vt 0.613245 0.746362
vt 0.629257 0.725777
vt 0.880050 0.197359
vt 0.906139 0.198696
vt 0.906852 0.172800
vt 0.880925 0.173121
vt 0.881162 0.144398
vt 0.907297 0.143542
vt 0.880819 0.116615
vt 0.907156 0.116495
vt 0.880050 0.091911
vt 0.906581 0.092903
vt 0.729284 0.183154
vt 0.729757 0.211103
vt 0.755896 0.218445
vt 0.755490 0.191883
vt 0.729021 0.155827
vt 0.755266 0.162200
vt 0.728861 0.131521
vt 0.755201 0.131554
vt 0.755321 0.103239
vt 0.728934 0.108985
vt 0.755584 0.077546
vt 0.729089 0.084712
vt 0.756007 0.056375
vt 0.729442 0.061875
vt 0.639893 0.712307
vt 0.640730 0.685570
vt 0.623228 0.685570
vt 0.371343 0.423498
vt 0.371343 0.388835
vt 0.356931 0.411396
vt 0.888108 0.818445
vt 0.914851 0.819907
vt 0.915050 0.797163
vt 0.888305 0.796011
vt 0.583126 0.382709
vt 0.582780 0.394835
vt 0.599249 0.396481
vt 0.599595 0.384354
vt 0.256804 0.678622
vt 0.244860 0.689306
vt 0.256954 0.689527
vt 0.369824 0.689527
vt 0.369675 0.678622
vt 0.599244 0.271487
vt 0.582780 0.271562
vt 0.504703 0.682264
vt 0.393552 0.682265
vt 0.398401 0.694294
vt 0.499856 0.694293
vt 0.516645 0.692950
vt 0.510757 0.704170
vt 0.549365 0.986010
vt 0.549446 1.000000
vt 0.559875 0.990108
vt 0.533050 0.983842
vt 0.533131 0.997831
vt 0.381612 0.692950
vt 0.387503 0.704170
vt 0.381612 0.689306
vt 0.369724 0.989538
vt 0.381512 0.989317
vt 0.559875 0.702356
vt 0.543430 0.703696
vt 0.381646 0.989314
vt 0.387534 0.978095
vt 0.256853 0.989538
vt 0.845894 0.697579
vt 0.846214 0.684333
vt 0.836150 0.696131
vt 0.369568 1.000000
vt 0.862344 0.697410
vt 0.862665 0.684163
vt 0.393588 1.000000
vt 0.398434 0.987971
vt 0.244759 0.989317
vt 0.256697 1.000000
vt 0.845894 0.809477
vt 0.516678 0.998186
vt 0.533050 1.000000
vt 0.533050 0.699966
vt 0.516678 0.701863
vt 0.516678 0.989314
vt 0.510788 0.978095
vt 0.846214 0.819907
vt 0.862665 0.818032
vt 0.862344 0.807602
vt 0.504738 1.000000
vt 0.499890 0.987971
vt 0.192792 0.668498
vt 0.144621 0.743435
vt 0.170816 0.752422
vt 0.190863 0.766769
vt 0.244759 0.704813
vt 0.204487 0.785698
vt 0.130737 0.655489
vt 0.117279 0.740315
vt 0.093166 0.745405
vt 0.068525 0.667869
vt 0.073098 0.757271
vt 0.240447 0.812373
vt 0.212148 0.808720
vt 0.214439 0.835316
vt 0.244759 0.842700
vt 0.029354 0.768121
vt 0.056850 0.775281
vt 0.044088 0.798721
vt 0.013243 0.794167
vt 0.212200 0.863714
vt 0.243279 0.870232
vt 0.235115 0.897759
vt 0.203860 0.893316
vt 0.219695 0.928800
vt 0.191295 0.921128
vt 0.197330 0.959271
vt 0.174326 0.944919
vt 0.166561 0.985483
vt 0.152765 0.962545
vt 0.132070 0.999903
vt 0.126681 0.971856
vt 0.034648 0.826493
vt 0.003558 0.819979
vt 0.000000 0.848472
vt 0.030419 0.856957
vt 0.001678 0.883097
vt 0.030775 0.887478
vt 0.009945 0.919989
vt 0.036777 0.916085
vt 0.026629 0.955016
vt 0.049458 0.940889
vt 0.053427 0.983417
vt 0.069614 0.959893
vt 0.090992 1.000000
vt 0.097082 0.970903
vt 0.835326 0.735105
vt 0.810615 0.779021
vt 0.836150 0.782835
vt 0.835326 0.819907
vt 0.809810 0.729529
vt 0.832966 0.682744
vt 0.809810 0.818106
vt 0.729899 0.381152
vt 0.728861 0.432967
vt 0.753789 0.420213
vt 0.430315 0.367288
vt 0.478675 0.377770
vt 0.495611 0.258669
vt 0.398564 0.329323
vt 0.538897 0.344846
vt 0.815656 0.648408
vt 0.790747 0.623533
vt 0.792244 0.682264
vt 0.399718 0.260678
vt 0.754654 0.356835
vt 0.814764 0.586312
vt 0.730243 0.317018
vt 0.790179 0.553160
vt 0.581505 0.288221
vt 0.814809 0.526289
vt 0.815656 0.482054
vt 0.754678 0.285993
vt 0.430037 0.196622
vt 0.729828 0.258792
vt 0.791374 0.483449
vt 0.581505 0.207602
vt 0.862665 0.803017
vt 0.887564 0.819907
vt 0.888048 0.770770
vt 0.753791 0.233149
vt 0.480552 0.161019
vt 0.728861 0.218445
vt 0.863091 0.740829
vt 0.887832 0.692119
vt 0.862665 0.692740
vt 0.537680 0.160513
vt 0.888108 0.740883
vt 0.863046 0.771967
vt 0.564872 0.175751
s 0
usemtl Body
f 1/1/1 2/2/1 3/3/1
f 1/1/1 4/4/1 2/2/1
f 5/5/2 6/6/2 7/7/2
f 8/5/2 9/8/2 10/6/2
f 11/9/3 12/10/3 13/11/3
f 11/9/3 14/12/3 12/10/3
f 15/13/4 16/14/4 17/15/4
f 18/13/5 19/16/5 20/14/5
f 21/17/6 22/18/6 23/19/6
f 21/17/6 24/20/6 22/18/6
s 1
f 25/21/7 26/22/7 27/23/8
f 25/21/7 28/24/7 26/22/7
f 29/25/9 30/26/10 31/27/11
f 31/27/11 30/26/10 32/28/12
f 31/27/11 32/28/12 33/29/13
f 33/29/13 32/28/12 34/30/14
f 33/29/13 34/30/14 35/31/14
f 36/32/15 37/31/16 38/30/17
f 39/33/15 40/34/17 41/35/18
f 42/36/19 43/37/20 44/38/20
f 42/36/19 44/38/20 45/39/21
f 42/36/19 45/39/21 46/40/22
f 42/36/19 46/40/22 47/41/23
f 48/42/24 49/43/24 50/44/25
f 48/42/24 50/44/25 51/45/26
f 52/24/27 53/45/28 54/44/29
f 52/24/27 54/44/29 55/22/27
f 56/46/30 57/47/30 58/48/31
s 0
f 56/46/30 59/49/30 57/47/30
s 1
f 60/50/32 61/51/32 62/52/32
f 60/50/32 63/53/32 61/51/32
f 64/54/33 65/55/34 66/56/35
f 66/56/35 65/55/34 67/57/36
f 66/56/35 67/57/36 68/58/37
f 66/56/35 68/58/37 69/59/38
f 66/56/35 69/59/38 70/60/39
f 64/54/33 66/56/35 70/60/39
f 64/54/33 70/60/39 71/61/40
f 72/62/41 70/60/39 69/59/38
f 73/63/42 74/64/43 75/65/44
f 72/62/41 69/59/38 76/66/45
f 77/67/46 78/68/41 79/69/47
f 73/63/42 75/65/44 80/70/46
f 77/67/46 79/69/47 81/71/48
f 77/67/46 81/71/48 82/72/49
f 73/63/42 80/70/46 83/73/50
f 84/74/33 73/63/42 83/73/50
f 85/75/51 84/74/33 83/73/50
f 85/75/51 83/73/50 86/76/52
f 86/76/52 83/73/50 87/77/53
f 83/73/50 80/70/46 88/78/54
f 77/67/46 82/72/49 89/79/54
f 83/73/50 88/78/54 87/77/53
f 90/80/55 91/81/54 92/82/56
f 93/83/57 91/81/54 90/80/55
f 90/80/55 92/82/56 94/84/58
f 90/80/55 94/84/58 95/85/59
f 93/83/57 90/80/55 96/86/60
f 90/80/55 95/85/59 96/86/60
f 93/83/57 96/86/60 97/87/61
f 98/88/60 99/89/59 100/90/62
f 98/88/60 100/90/62 101/91/63
f 102/92/61 98/88/60 101/91/63
f 101/91/63 100/90/62 103/93/64
f 101/91/63 103/93/64 104/94/65
f 105/95/65 86/76/52 106/96/66
f 104/94/65 103/93/64 107/97/36
f 85/75/51 86/76/52 105/95/65
f 104/94/65 107/97/36 108/98/67
f 85/75/51 105/95/65 84/74/33
f 105/95/65 109/99/67 84/74/33
f 110/100/68 111/101/69 112/102/70
f 110/100/68 112/102/70 113/103/71
f 114/104/72 115/105/73 116/106/74
f 114/104/72 116/106/74 117/107/75
f 118/108/76 110/100/68 113/103/71
f 114/104/72 117/107/75 119/109/77
f 118/108/76 113/103/71 120/110/78
f 121/111/79 122/112/80 123/113/81
f 124/114/69 122/112/80 121/111/79
f 124/114/69 121/111/79 125/115/82
f 121/111/79 123/113/81 126/116/83
f 127/117/84 128/118/76 129/119/78
f 125/115/82 121/111/79 130/120/85
f 121/111/79 126/116/83 130/120/85
f 125/115/82 130/120/85 131/121/86
f 131/121/86 130/120/85 132/122/87
f 132/122/87 130/120/85 126/116/83
f 131/121/86 132/122/87 133/123/88
f 127/117/84 129/119/78 134/124/89
f 135/125/90 136/126/84 137/127/91
f 119/109/77 117/107/75 138/128/92
f 119/109/77 138/128/92 139/129/93
f 135/125/90 137/127/91 140/130/94
f 141/131/92 140/130/94 137/127/91
f 142/132/95 135/125/90 140/130/94
f 142/132/95 140/130/94 143/133/96
f 143/133/96 140/130/94 141/131/92
f 143/133/96 141/131/92 144/134/97
f 145/135/97 138/128/92 117/107/75
f 145/135/97 117/107/75 116/106/74
f 146/136/98 142/132/95 143/133/96
f 146/136/98 143/133/96 147/137/99
f 147/137/99 143/133/96 144/134/97
f 147/137/99 144/134/97 148/138/100
f 149/139/101 150/140/102 151/141/103
f 147/137/99 148/138/100 152/142/104
f 149/139/101 151/141/103 153/143/105
f 154/144/106 155/145/98 156/146/101
f 133/123/88 155/145/98 154/144/106
f 133/123/88 154/144/106 131/121/86
f 154/144/106 156/146/101 157/147/107
f 158/148/108 149/139/101 153/143/105
f 131/121/86 154/144/106 159/149/109
f 154/144/106 157/147/107 159/149/109
f 131/121/86 159/149/109 125/115/82
f 125/115/82 159/149/109 160/150/110
f 160/150/110 159/149/109 157/147/107
f 125/115/82 160/150/110 124/114/69
f 158/148/108 153/143/105 161/151/111
f 162/152/110 158/148/108 161/151/111
f 163/153/112 164/154/113 165/155/114
f 163/153/112 165/155/114 166/156/111
f 162/152/110 161/151/111 167/157/115
f 165/155/114 168/158/116 166/156/111
f 111/101/69 169/159/117 170/160/118
f 111/101/69 170/160/118 112/102/70
f 115/105/73 168/158/116 165/155/114
f 115/105/73 165/155/114 116/106/74
f 116/106/74 165/155/114 164/154/113
f 116/106/74 164/154/113 145/135/97
f 171/161/119 172/162/120 173/163/121
f 172/162/120 171/161/119 174/164/122
f 172/162/120 174/164/122 175/165/123
f 176/166/124 177/167/125 178/168/126
f 176/166/124 178/168/126 179/169/127
f 180/170/127 181/171/128 182/172/129
f 183/173/130 181/171/128 180/170/127
f 184/174/131 179/169/127 178/168/126
f 184/174/131 178/168/126 185/175/132
f 186/176/130 179/169/127 187/177/133
f 187/177/133 179/169/127 184/174/131
f 188/178/134 189/179/130 190/180/135
f 191/181/136 184/174/131 185/175/132
f 191/181/136 185/175/132 192/182/137
f 191/181/136 192/182/137 193/183/138
f 188/178/134 190/180/135 194/184/139
f 188/178/134 194/184/139 195/185/140
f 196/186/141 187/177/133 184/174/131
f 196/186/141 184/174/131 191/181/136
f 197/187/142 187/177/133 196/186/141
f 191/181/136 193/183/138 198/188/143
f 196/186/141 191/181/136 198/188/143
f 198/188/143 193/183/138 199/189/144
f 200/190/145 195/185/140 194/184/139
f 201/191/146 202/192/147 203/193/148
f 197/187/142 196/186/141 204/194/149
f 196/186/141 198/188/143 204/194/149
f 200/190/145 194/184/139 205/195/150
f 198/188/143 199/189/144 206/196/151
f 206/196/151 204/194/149 198/188/143
f 206/196/151 199/189/144 207/197/152
f 208/198/153 202/192/147 201/191/146
f 209/199/154 210/200/155 211/201/156
f 212/202/157 200/190/145 205/195/150
f 213/203/158 204/194/149 206/196/151
f 211/201/156 200/190/145 212/202/157
f 206/196/151 207/197/152 214/204/159
f 213/203/158 206/196/151 214/204/159
f 207/197/152 215/205/160 214/204/159
f 209/199/154 211/201/156 216/206/161
f 217/207/162 209/199/154 216/206/161
f 211/201/156 212/202/157 218/208/163
f 219/209/164 213/203/158 214/204/159
f 216/206/161 211/201/156 218/208/163
f 220/210/165 221/211/166 222/212/167
f 223/213/168 221/211/166 220/210/165
f 220/210/165 222/212/167 224/214/169
f 225/215/170 223/213/168 220/210/165
f 216/206/161 218/208/163 226/216/171
f 227/217/172 220/210/165 224/214/169
f 225/215/170 220/210/165 227/217/172
f 227/217/172 224/214/169 228/218/173
f 227/217/172 228/218/173 229/219/174
f 227/217/172 229/219/174 230/220/175
f 225/215/170 227/217/172 230/220/175
f 230/220/175 229/219/174 231/221/176
f 217/207/162 216/206/161 232/222/177
f 217/207/162 232/222/177 233/223/178
f 216/206/161 226/216/171 234/224/179
f 225/215/170 230/220/175 235/225/180
f 216/206/161 234/224/179 232/222/177
f 230/220/175 231/221/176 236/226/181
f 235/225/180 230/220/175 236/226/181
f 237/227/182 238/228/183 239/229/184
f 240/230/177 241/231/185 242/232/186
f 243/233/187 242/232/186 241/231/185
f 232/222/177 234/224/179 244/234/188
f 245/235/189 237/227/182 246/236/190
f 232/222/177 244/234/188 247/237/185
f 248/238/191 237/227/182 239/229/184
f 246/236/190 237/227/182 248/238/191
f 248/238/191 239/229/184 249/239/192
f 250/240/187 251/241/193 252/242/194
f 253/243/195 250/240/187 252/242/194
f 254/244/185 246/236/190 255/245/196
f 246/236/190 248/238/191 255/245/196
f 254/244/185 255/245/196 256/246/194
f 257/247/197 248/238/191 249/239/192
f 255/245/196 248/238/191 257/247/197
f 257/247/197 249/239/192 258/248/198
f 253/243/195 252/242/194 259/249/199
f 259/249/199 260/250/200 253/243/195
f 256/246/194 255/245/196 261/251/201
f 261/251/201 255/245/196 257/247/197
f 256/246/194 261/251/201 262/252/202
f 263/253/203 257/247/197 258/248/198
f 261/251/201 257/247/197 263/253/203
f 263/253/203 258/248/198 264/254/204
f 263/253/203 264/254/204 265/255/205
f 261/251/201 263/253/203 266/256/206
f 263/253/203 265/255/205 266/256/206
f 261/251/201 266/256/206 262/252/202
f 266/256/206 265/255/205 267/257/207
f 268/258/208 269/259/209 270/260/210
f 271/261/211 262/252/202 266/256/206
f 266/256/206 267/257/207 271/261/211
f 272/262/212 273/263/210 274/264/213
f 271/261/211 267/257/207 275/265/214
f 276/266/215 274/264/213 273/263/210
f 271/261/211 275/265/214 277/267/215
f 278/268/216 279/269/217 280/270/218
f 281/271/219 278/268/216 280/270/218
f 281/271/219 280/270/218 282/272/220
f 278/268/216 281/271/219 283/273/221
f 281/271/219 284/274/222 283/273/221
f 281/271/219 282/272/220 285/275/223
f 286/276/224 284/274/222 281/271/219
f 286/276/224 287/277/225 284/274/222
f 288/278/226 287/277/225 286/276/224
f 288/278/226 286/276/224 289/279/227
f 288/278/226 289/279/227 290/280/228
f 291/281/229 292/282/230 293/283/231
f 291/281/229 293/283/231 294/284/232
f 295/285/233 294/284/232 293/283/231
f 295/285/233 293/283/231 296/286/234
f 297/287/235 295/285/233 296/286/234
f 297/287/235 296/286/234 298/288/236
f 299/289/237 300/290/238 301/291/239
f 300/290/238 299/289/237 302/292/240
f 300/290/238 302/292/240 303/293/241
f 304/294/242 303/293/241 302/292/240
f 304/294/242 302/292/240 305/295/243
f 306/296/242 307/297/243 308/298/244
f 309/299/244 305/295/243 310/300/245
f 311/301/246 310/300/245 305/295/243
f 312/302/247 310/300/245 311/301/246
f 311/301/246 305/295/243 313/303/248
f 313/303/248 305/295/243 314/304/200
f 313/303/248 314/304/200 315/305/249
f 315/305/249 314/304/200 316/306/213
f 315/305/249 316/306/213 317/307/215
f 318/308/195 314/304/200 305/295/243
f 318/308/195 305/295/243 302/292/240
f 318/308/195 302/292/240 243/233/187
f 242/232/186 243/233/187 302/292/240
f 242/232/186 302/292/240 299/289/237
f 319/309/250 298/288/236 296/286/234
f 319/309/250 296/286/234 320/310/162
f 321/311/251 320/310/162 296/286/234
f 321/311/251 296/286/234 293/283/231
f 322/312/155 321/311/251 293/283/231
f 322/312/155 293/283/231 292/282/230
f 203/193/148 202/192/147 289/279/227
f 203/193/148 289/279/227 286/276/224
f 203/193/148 286/276/224 323/313/134
f 286/276/224 281/271/219 323/313/134
f 281/271/219 324/314/130 323/313/134
f 324/314/130 281/271/219 285/275/223
f 324/314/130 285/275/223 325/315/252
f 326/316/253 325/315/252 285/275/223
f 327/317/254 328/318/255 329/319/255
f 330/317/256 331/319/257 332/320/254
f 330/317/256 332/320/254 333/321/258
f 330/317/256 333/321/258 334/322/259
f 334/322/259 333/321/258 173/163/121
f 334/322/259 173/163/121 335/323/260
f 336/324/261 335/323/260 173/163/121
f 336/324/261 173/163/121 172/162/120
f 336/324/261 337/325/262 335/323/260
f 336/324/261 172/162/120 175/165/123
f 338/326/263 337/325/262 336/324/261
f 336/324/261 175/165/123 339/327/264
f 338/326/263 336/324/261 339/327/264
f 340/328/265 341/329/266 342/330/267
f 340/328/265 342/330/267 343/331/268
f 344/332/269 340/328/265 343/331/268
f 344/332/269 343/331/268 345/333/270
f 346/334/271 344/332/269 345/333/270
f 346/334/271 345/333/270 347/335/272
f 348/336/273 349/337/271 350/338/274
f 348/336/273 350/338/274 351/339/275
f 352/340/276 348/336/273 351/339/275
f 352/340/276 351/339/275 353/341/277
f 354/342/278 352/340/276 353/341/277
f 354/342/278 353/341/277 355/343/279
f 354/342/278 355/343/279 356/344/280
f 354/342/278 356/344/280 357/345/281
f 357/345/281 356/344/280 358/346/282
f 357/345/281 358/346/282 359/347/283
f 359/347/283 358/346/282 360/348/284
f 359/347/283 360/348/284 361/349/285
f 361/349/285 360/348/284 362/350/286
f 361/349/285 362/350/286 363/351/287
f 364/352/288 365/353/289 366/354/290
f 367/355/291 368/356/290 369/357/292
f 370/358/293 371/359/294 372/360/295
f 370/358/293 372/360/295 373/361/295
f 374/362/296 373/361/295 372/360/295
f 374/362/296 372/360/295 375/363/297
f 376/364/298 374/362/296 375/363/297
f 376/364/298 375/363/297 377/365/299
f 378/366/300 376/364/298 377/365/299
f 378/366/300 377/365/299 379/367/301
f 380/368/302 381/369/303 382/370/304
f 380/368/302 382/370/304 383/371/305
f 384/372/306 380/368/302 383/371/305
f 384/372/306 383/371/305 385/373/307
f 386/374/308 384/372/306 385/373/307
f 386/374/308 385/373/307 387/375/309
f 386/374/308 387/375/309 388/376/310
f 386/374/308 388/376/310 389/377/311
f 389/377/311 388/376/310 390/378/312
f 389/377/311 390/378/312 391/379/313
f 391/379/313 390/378/312 392/380/314
f 391/379/313 392/380/314 393/381/315
f 394/382/316 395/383/314 396/384/317
f 397/385/318 398/386/317 399/387/319
f 400/388/320 401/389/321 402/390/322
f 400/388/320 402/390/322 403/391/323
f 403/391/323 402/390/322 342/330/267
f 403/391/323 342/330/267 341/329/266
f 404/392/324 405/393/325 406/394/326
f 404/392/324 406/394/326 407/395/327
f 408/396/328 409/397/329 410/398/330
f 408/396/328 410/398/330 411/399/331
f 408/396/328 411/399/331 412/400/332
f 404/392/324 407/395/327 413/401/333
f 404/392/324 413/401/333 414/402/334
f 415/403/324 416/404/335 417/405/336
f 415/403/324 417/405/336 418/406/336
f 419/407/337 415/403/324 418/406/336
f 419/407/337 418/406/336 420/408/336
f 421/409/338 422/410/333 423/411/339
f 422/410/333 421/409/338 424/412/340
f 422/410/333 424/412/340 425/413/334
f 416/404/335 426/414/341 427/415/336
f 416/404/335 427/415/336 417/405/336
f 428/416/342 411/399/331 429/417/343
f 429/417/343 411/399/331 410/398/330
f 428/416/342 429/417/343 430/418/344
f 424/412/340 421/409/338 431/419/345
f 424/412/340 431/419/345 432/420/346
f 426/414/341 433/421/347 434/422/336
f 426/414/341 434/422/336 427/415/336
f 429/417/343 410/398/330 435/423/348
f 436/424/349 437/425/350 438/426/343
f 439/427/349 429/417/343 435/423/348
f 437/425/350 436/424/349 440/428/351
f 437/425/350 440/428/351 441/429/346
f 433/421/347 442/430/352 443/431/336
f 433/421/347 443/431/336 434/422/336
f 444/432/353 435/423/348 410/398/330
f 444/432/353 410/398/330 409/397/329
f 439/427/349 435/423/348 445/433/354
f 444/432/353 445/433/354 435/423/348
f 440/428/351 436/424/349 446/434/354
f 447/435/355 448/436/353 449/437/329
f 447/435/355 449/437/329 450/438/356
f 451/439/357 419/407/337 420/408/336
f 451/439/357 420/408/336 452/440/336
f 446/434/354 453/441/353 454/442/358
f 440/428/351 446/434/354 455/443/359
f 442/430/352 456/444/360 457/445/336
f 442/430/352 457/445/336 443/431/336
f 446/434/354 454/442/358 455/443/359
f 456/444/360 451/439/357 452/440/336
f 456/444/360 452/440/336 457/445/336
f 458/446/361 459/447/362 460/448/363
f 458/446/361 460/448/363 461/449/364
f 458/446/361 461/449/364 462/450/365
f 462/450/365 461/449/364 463/451/366
f 458/446/361 464/452/367 459/447/362
f 464/452/367 465/453/368 459/447/362
f 464/452/367 466/454/369 465/453/368
f 464/452/367 467/455/370 466/454/369
f 466/454/369 467/455/370 468/456/371
f 463/451/366 469/457/372 462/450/365
f 463/451/366 470/458/373 469/457/372
f 471/459/374 469/457/372 470/458/373
f 471/459/374 472/460/375 469/457/372
f 473/461/376 468/456/371 467/455/370
f 473/461/376 474/462/377 468/456/371
f 473/461/376 475/463/378 474/462/377
f 473/461/376 476/464/379 475/463/378
f 477/465/380 472/460/375 471/459/374
f 477/465/380 478/466/381 472/460/375
f 479/467/382 478/466/381 477/465/380
f 479/467/382 477/465/380 480/468/383
f 481/469/384 479/467/382 480/468/383
f 481/469/384 480/468/383 482/470/385
f 483/471/386 481/469/384 482/470/385
f 483/471/386 482/470/385 484/472/387
f 485/473/388 483/471/386 484/472/387
f 485/473/388 484/472/387 486/474/389
f 487/475/390 485/473/388 486/474/389
f 487/475/390 486/474/389 488/476/391
f 476/464/379 489/477/392 475/463/378
f 476/464/379 490/478/393 489/477/392
f 491/479/394 489/477/392 490/478/393
f 491/479/394 492/480/395 489/477/392
f 493/481/396 492/480/395 491/479/394
f 493/481/396 494/482/397 492/480/395
f 495/483/398 494/482/397 493/481/396
f 495/483/398 496/484/399 494/482/397
f 497/485/400 496/484/399 495/483/398
f 497/485/400 498/486/401 496/484/399
f 499/487/402 498/486/401 497/485/400
f 499/487/402 500/488/403 498/486/401
f 501/489/404 500/488/403 499/487/402
f 501/489/404 502/490/405 500/488/403
f 501/489/404 488/476/391 502/490/405
f 501/489/404 487/475/390 488/476/391
f 503/491/406 504/492/407 505/493/408
f 506/494/409 505/493/408 504/492/407
f 503/491/406 507/495/410 504/492/407
f 508/496/411 507/495/410 503/491/406
f 506/494/409 504/492/407 509/497/412
f 510/498/413 511/499/414 512/500/415
f 513/501/416 514/502/410 515/503/417
f 513/501/416 515/503/417 516/504/418
f 517/505/419 515/503/417 514/502/410
f 518/506/420 519/507/421 520/508/422
f 521/509/423 516/504/418 515/503/417
f 510/498/413 512/500/415 522/510/424
f 523/511/425 519/507/421 518/506/420
f 524/512/426 510/498/413 522/510/424
f 523/511/425 525/513/427 519/507/421
f 517/505/419 526/514/428 515/503/417
f 527/515/429 525/513/427 523/511/425
f 525/513/427 527/515/429 528/516/430
f 524/512/426 522/510/424 529/517/431
f 521/509/423 515/503/417 530/518/432
f 529/517/431 531/519/433 524/512/426
f 525/513/427 528/516/430 532/520/434
f 515/503/417 526/514/428 533/521/435
f 534/522/434 535/523/430 536/524/436
f 537/525/437 531/519/433 529/517/431
f 538/526/437 530/518/432 515/503/417
f 537/525/437 539/527/438 531/519/433
f 540/528/439 541/529/440 542/530/437
f 515/503/417 543/531/439 538/526/437
f 540/528/439 544/532/441 541/529/440
f 540/528/439 536/524/436 544/532/441
f 534/522/434 536/524/436 545/533/442
f 515/503/417 533/521/435 546/534/442
f 540/528/439 545/533/442 536/524/436
f 515/503/417 546/534/442 543/531/439
o Seat_Seat_0
v -0.228337 1.109028 -0.226674
v -0.244713 1.078244 -0.226559
v -0.363574 1.083646 -0.125409
v -0.343354 1.113360 -0.116322
v -0.421867 1.084556 -0.043974
v -0.343354 1.113360 -0.116322
v -0.421867 1.084556 -0.043974
v -0.399950 1.115519 -0.032514
v -0.458795 1.082819 0.049745
v -0.435903 1.116908 0.054264
v -0.480304 1.081505 0.148946
v -0.458860 1.117419 0.152861
v -0.485337 1.080686 0.248231
v -0.464970 1.116952 0.247315
v -0.476130 1.080429 0.349489
v -0.456822 1.117004 0.348608
v -0.452848 1.080766 0.448110
v -0.435155 1.117580 0.443318
v -0.415715 1.081329 0.542802
v -0.398686 1.118432 0.538266
v -0.398686 1.118432 0.538266
v -0.415715 1.081329 0.542802
v -0.365548 1.082104 0.631451
v -0.351431 1.119479 0.623195
v -0.299293 1.082132 0.707195
v -0.286013 1.119189 0.699587
v -0.220139 1.081438 0.767308
v -0.212801 1.117676 0.756742
v -0.149620 1.081210 0.801347
v -0.142572 1.116685 0.790851
v -0.045861 1.081368 0.827902
v -0.046151 1.115625 0.814378
v 0.065859 1.081334 0.827225
v 0.065996 1.115563 0.813783
v 0.182421 1.080971 0.794617
v 0.169072 1.116439 0.786513
v 0.252526 1.081248 0.758093
v 0.239016 1.117465 0.750463
v 0.310603 1.082013 0.708961
v 0.296881 1.119047 0.701138
v 0.379296 1.082104 0.626251
v 0.365065 1.119480 0.618192
v 0.411125 1.118432 0.532612
v 0.428220 1.081329 0.536910
v 0.464028 1.080766 0.441708
v 0.446264 1.117580 0.437164
v 0.466607 1.117004 0.342161
v 0.485925 1.080429 0.342772
v 0.466607 1.117004 0.342161
v 0.485925 1.080429 0.342772
v 0.493717 1.080686 0.241396
v 0.473345 1.116952 0.240764
v 0.465916 1.117419 0.146404
v 0.487304 1.081505 0.142190
v 0.464406 1.082819 0.043299
v 0.441584 1.116908 0.048138
v 0.404423 1.115519 -0.038130
v 0.426172 1.084556 -0.049895
v 0.366754 1.083646 -0.130508
v 0.346657 1.113360 -0.121140
v 0.230110 1.109028 -0.229869
v 0.346657 1.113360 -0.121140
v 0.366754 1.083646 -0.130508
v 0.246487 1.078244 -0.229989
v -0.244713 1.078244 -0.226559
v -0.228337 1.109028 -0.226674
v 0.000887 1.118603 -0.228246
v 0.000887 1.077321 -0.228251
v 0.246487 1.078244 -0.229989
v 0.230110 1.109028 -0.229869
v 0.193576 1.116115 0.628324
v 0.216926 1.074390 0.559496
v 0.176620 1.074970 0.616418
v 0.126761 1.075631 0.660653
v 0.235352 1.114713 0.570097
v 0.137140 1.115483 0.672427
v 0.275605 1.112473 0.490068
v 0.275605 1.112473 0.490068
v 0.254304 1.073913 0.469735
v 0.216926 1.074390 0.559496
v 0.275370 1.073223 0.403314
v 0.045982 1.115177 0.711860
v 0.046045 1.077617 0.697104
v -0.029255 1.077863 0.696674
v -0.029925 1.115273 0.712725
v -0.077861 1.076997 0.676469
v -0.094691 1.115000 0.691455
v -0.141149 1.075579 0.631933
v -0.161591 1.115597 0.651436
v -0.172159 1.074556 0.593970
v -0.203809 1.116729 0.607950
v -0.203809 1.116729 0.607950
v -0.172159 1.074556 0.593970
v -0.236717 1.073672 0.480882
v -0.264086 1.112450 0.493227
v -0.260198 1.073042 0.417363
v -0.286990 1.110371 0.429254
v -0.275412 1.072114 0.338684
v -0.307234 1.107634 0.332064
v -0.278353 1.071634 0.270467
v -0.309887 1.105435 0.264300
v -0.268483 1.071435 0.179027
v -0.297560 1.101970 0.170144
v -0.247893 1.070924 0.114636
v -0.275714 1.099751 0.106246
v -0.275714 1.099751 0.106246
v -0.247893 1.070924 0.114636
v -0.212004 1.069996 0.050538
v -0.241110 1.097820 0.046489
v -0.160572 1.069034 -0.002421
v -0.190438 1.095225 -0.008548
v -0.094075 1.068039 -0.045346
v -0.118693 1.091747 -0.061329
v 0.002114 1.065880 -0.052444
v 0.001971 1.093654 -0.073005
v 0.122786 1.091747 -0.063015
v 0.098399 1.068039 -0.046696
v 0.165483 1.069034 -0.004703
v 0.246703 1.097820 0.043083
v 0.217651 1.069996 0.047538
v 0.246703 1.097820 0.043083
v 0.217651 1.069996 0.047538
v 0.275924 1.071435 0.175226
v 0.304868 1.101970 0.165938
v 0.287069 1.071634 0.266519
v 0.316807 1.107634 0.327707
v 0.285929 1.072215 0.334770
v 0.446264 1.117580 0.437164
v 0.275605 1.112473 0.490068
v 0.411125 1.118432 0.532612
v 0.365065 1.119480 0.618192
v 0.235352 1.114713 0.570097
v 0.296881 1.119047 0.701138
v 0.193576 1.116115 0.628324
v 0.239016 1.117465 0.750463
v 0.316807 1.107634 0.327707
v 0.466607 1.117004 0.342161
v 0.473345 1.116952 0.240764
v 0.304868 1.101970 0.165938
v 0.465916 1.117419 0.146404
v 0.137140 1.115483 0.672427
v 0.169072 1.116439 0.786513
v 0.246703 1.097820 0.043083
v 0.065996 1.115563 0.813783
v 0.045982 1.115177 0.711860
v -0.029925 1.115273 0.712725
v -0.046151 1.115625 0.814378
v -0.094691 1.115000 0.691455
v -0.142572 1.116685 0.790851
v -0.161591 1.115597 0.651436
v -0.212801 1.117676 0.756742
v 0.441584 1.116908 0.048138
v 0.404423 1.115519 -0.038130
v 0.346657 1.113360 -0.121140
v 0.122786 1.091747 -0.063015
v 0.230110 1.109028 -0.229869
v 0.001971 1.093654 -0.073005
v 0.000887 1.118603 -0.228246
v -0.203809 1.116729 0.607950
v -0.286013 1.119189 0.699587
v -0.351431 1.119479 0.623195
v -0.264086 1.112450 0.493227
v -0.398686 1.118432 0.538266
v -0.286990 1.110371 0.429254
v -0.435155 1.117580 0.443318
v -0.307234 1.107634 0.332064
v -0.456822 1.117004 0.348608
v -0.309887 1.105435 0.264300
v -0.464970 1.116952 0.247315
v -0.297560 1.101970 0.170144
v -0.458860 1.117419 0.152861
v -0.275714 1.099751 0.106246
v -0.435903 1.116908 0.054264
v -0.241110 1.097820 0.046489
v -0.399950 1.115519 -0.032514
v -0.190438 1.095225 -0.008548
v -0.343354 1.113360 -0.116322
v -0.118693 1.091747 -0.061329
v -0.228337 1.109028 -0.226674
v -0.045861 1.081368 0.827902
v 0.046045 1.077617 0.697104
v 0.065859 1.081334 0.827225
v 0.182421 1.080971 0.794617
v -0.029255 1.077863 0.696674
v 0.126761 1.075631 0.660653
v 0.252526 1.081248 0.758093
v 0.176620 1.074970 0.616418
v 0.310603 1.082013 0.708961
v 0.216926 1.074390 0.559496
v 0.379296 1.082104 0.626251
v 0.254304 1.073913 0.469735
v 0.428220 1.081329 0.536910
v -0.149620 1.081210 0.801347
v -0.077861 1.076997 0.676469
v 0.275370 1.073223 0.403314
v 0.464028 1.080766 0.441708
v -0.141149 1.075579 0.631933
v -0.220139 1.081438 0.767308
v -0.299293 1.082132 0.707195
v 0.485925 1.080429 0.342772
v 0.285929 1.072215 0.334770
v -0.172159 1.074556 0.593970
v -0.365548 1.082104 0.631451
v -0.415715 1.081329 0.542802
v -0.236717 1.073672 0.480882
v -0.452848 1.080766 0.448110
v -0.260198 1.073042 0.417363
v -0.476130 1.080429 0.349489
v -0.275412 1.072114 0.338684
v -0.485337 1.080686 0.248231
v -0.278353 1.071634 0.270467
v -0.480304 1.081505 0.148946
v -0.268483 1.071435 0.179027
v 0.287069 1.071634 0.266519
v 0.493717 1.080686 0.241396
v 0.487304 1.081505 0.142190
v 0.275924 1.071435 0.175226
v 0.464406 1.082819 0.043299
v -0.458795 1.082819 0.049745
v -0.247893 1.070924 0.114636
v 0.217651 1.069996 0.047538
v 0.426172 1.084556 -0.049895
v 0.366754 1.083646 -0.130508
v 0.165483 1.069034 -0.004703
v 0.246487 1.078244 -0.229989
v 0.098399 1.068039 -0.046696
v -0.212004 1.069996 0.050538
v -0.421867 1.084556 -0.043974
v -0.363574 1.083646 -0.125409
v -0.160572 1.069034 -0.002421
v -0.244713 1.078244 -0.226559
v -0.094075 1.068039 -0.045346
v 0.000887 1.077321 -0.228251
v 0.002114 1.065880 -0.052444
vn -0.5870 0.4544 -0.6700
vn -0.6211 0.5306 -0.5768
vn -0.6147 0.5153 -0.5972
vn -0.7025 0.6006 -0.3817
vn -0.6147 0.5153 -0.5971
vn -0.7025 0.6007 -0.3817
vn -0.7023 0.6007 -0.3821
vn -0.7898 0.5654 -0.2376
vn -0.7870 0.5673 -0.2424
vn -0.8437 0.5240 -0.1166
vn -0.8442 0.5235 -0.1153
vn -0.8711 0.4909 0.0165
vn -0.8710 0.4911 0.0150
vn -0.8736 0.4676 0.1349
vn -0.8735 0.4666 0.1390
vn -0.8562 0.4455 0.2617
vn -0.8559 0.4451 0.2633
vn -0.8221 0.4243 0.3797
vn -0.8198 0.4228 0.3862
vn -0.8198 0.4228 0.3863
vn -0.7521 0.3997 0.5241
vn -0.7498 0.3990 0.5279
vn -0.6434 0.3692 0.6706
vn -0.6348 0.3665 0.6802
vn -0.5014 0.3408 0.7953
vn -0.5005 0.3407 0.7959
vn -0.3127 0.3360 0.8884
vn -0.3041 0.3362 0.8914
vn -0.1032 0.3551 0.9291
vn -0.1112 0.3541 0.9286
vn 0.1245 0.3507 0.9282
vn 0.1329 0.3494 0.9275
vn 0.3398 0.3380 0.8776
vn 0.3123 0.3356 0.8887
vn 0.5250 0.3616 0.7705
vn 0.5073 0.3585 0.7836
vn 0.6684 0.3853 0.6362
vn 0.6621 0.3843 0.6434
vn 0.7588 0.4021 0.5124
vn 0.7567 0.4017 0.5158
vn 0.8250 0.4230 0.3748
vn 0.8272 0.4244 0.3682
vn 0.8598 0.4455 0.2497
vn 0.8594 0.4452 0.2513
vn 0.8753 0.4666 0.1269
vn 0.8755 0.4675 0.1225
vn 0.8753 0.4666 0.1268
vn 0.8713 0.4908 0.0043
vn 0.8711 0.4911 0.0029
vn 0.8425 0.5235 -0.1270
vn 0.8420 0.5239 -0.1285
vn 0.7865 0.5653 -0.2486
vn 0.7836 0.5673 -0.2534
vn 0.6969 0.6006 -0.3919
vn 0.6971 0.6006 -0.3915
vn 0.6129 0.5307 -0.5854
vn 0.6063 0.5153 -0.6057
vn 0.5775 0.4545 -0.6781
vn 0.5775 0.4545 -0.6782
vn -0.0069 -0.0001 -1.0000
vn -0.0069 0.0001 -1.0000
vn -0.0071 0.0001 -1.0000
vn -0.6620 0.4349 -0.6104
vn -0.7515 0.5002 -0.4303
vn -0.6573 0.4331 -0.6168
vn -0.4700 0.3732 -0.7999
vn -0.7511 0.4997 -0.4314
vn -0.4775 0.3753 -0.7944
vn -0.7821 0.5304 -0.3270
vn -0.7750 0.5423 -0.3246
vn -0.7515 0.5002 -0.4302
vn -0.8233 0.5231 -0.2204
vn -0.2053 0.3680 -0.9069
vn -0.2246 0.3660 -0.9031
vn 0.1458 0.4052 -0.9025
vn 0.1348 0.4036 -0.9049
vn 0.3919 0.4857 -0.7814
vn 0.4086 0.4978 -0.7650
vn 0.5220 0.5646 -0.6393
vn 0.5270 0.5669 -0.6332
vn 0.6558 0.6159 -0.4365
vn 0.6608 0.6173 -0.4270
vn 0.6608 0.6173 -0.4269
vn 0.7002 0.6205 -0.3531
vn 0.6997 0.6205 -0.3540
vn 0.7533 0.6219 -0.2139
vn 0.7517 0.6212 -0.2214
vn 0.7561 0.6430 -0.1215
vn 0.7536 0.6488 -0.1059
vn 0.7300 0.6832 0.0183
vn 0.7286 0.6845 0.0249
vn 0.7028 0.7003 0.1252
vn 0.7018 0.7007 0.1285
vn 0.6503 0.7070 0.2780
vn 0.6537 0.7072 0.2692
vn 0.6537 0.7072 0.2693
vn 0.6503 0.7070 0.2781
vn 0.5770 0.6937 0.4311
vn 0.5967 0.6981 0.3957
vn 0.4594 0.7017 0.5446
vn 0.4990 0.6939 0.5191
vn 0.1826 0.6466 0.7407
vn 0.2942 0.6825 0.6691
vn 0.0056 0.6006 0.7995
vn 0.0056 0.6007 0.7994
vn -0.2423 0.6581 0.7129
vn -0.1144 0.6350 0.7640
vn -0.5417 0.5759 0.6123
vn -0.6360 0.6983 0.3285
vn -0.6235 0.6988 0.3506
vn -0.6235 0.6989 0.3505
vn -0.6654 0.7092 0.2333
vn -0.6801 0.6986 0.2223
vn -0.7890 0.6133 0.0360
vn -0.7957 0.6009 -0.0762
vn -0.7592 0.6461 -0.0790
vn -0.0463 0.9985 -0.0299
vn -0.0337 0.9988 -0.0351
vn -0.0318 0.9990 -0.0299
vn -0.0256 0.9992 -0.0302
vn -0.0245 0.9993 -0.0287
vn -0.0214 0.9997 -0.0153
vn -0.0214 0.9997 -0.0134
vn -0.0211 0.9998 -0.0028
vn -0.0599 0.9978 -0.0293
vn -0.0613 0.9981 -0.0116
vn -0.0774 0.9970 -0.0102
vn -0.0907 0.9959 0.0035
vn -0.0952 0.9954 0.0141
vn -0.0138 0.9999 -0.0038
vn -0.0100 0.9999 -0.0042
vn -0.0896 0.9954 0.0349
vn -0.0036 1.0000 -0.0040
vn 0.0037 1.0000 -0.0056
vn 0.0042 1.0000 -0.0058
vn 0.0119 0.9999 -0.0090
vn 0.0124 0.9999 -0.0091
vn 0.0230 0.9997 -0.0070
vn 0.0220 0.9997 -0.0076
vn -0.0957 0.9952 0.0210
vn -0.0951 0.9949 0.0321
vn -0.0871 0.9953 0.0427
vn -0.0246 0.9951 0.0954
vn -0.0392 0.9957 0.0834
vn 0.0010 0.9902 0.1396
vn 0.0236 0.9995 -0.0228
vn 0.0232 0.9997 -0.0073
vn 0.0218 0.9992 -0.0344
vn 0.0295 0.9989 -0.0366
vn 0.0307 0.9989 -0.0362
vn 0.0460 0.9985 -0.0310
vn 0.0476 0.9984 -0.0304
vn 0.0600 0.9979 -0.0236
vn 0.0602 0.9979 -0.0234
vn 0.0774 0.9969 -0.0123
vn 0.0784 0.9969 -0.0118
vn 0.0924 0.9957 0.0018
vn 0.0918 0.9958 0.0009
vn 0.0985 0.9950 0.0181
vn 0.0986 0.9950 0.0177
vn 0.0949 0.9950 0.0320
vn 0.0954 0.9950 0.0308
vn 0.0868 0.9952 0.0445
vn 0.0876 0.9952 0.0434
vn 0.0164 0.9944 0.1042
vn 0.0322 0.9953 0.0912
vn -0.0020 -0.9996 0.0283
vn -0.0008 -0.9995 0.0314
vn -0.0006 -0.9995 0.0312
vn 0.0085 -0.9994 0.0336
vn -0.0017 -0.9996 0.0291
vn 0.0092 -0.9994 0.0338
vn 0.0242 -0.9992 0.0306
vn 0.0283 -0.9991 0.0308
vn 0.0340 -0.9990 0.0288
vn 0.0349 -0.9990 0.0266
vn 0.0349 -0.9990 0.0265
vn 0.0355 -0.9991 0.0222
vn 0.0353 -0.9991 0.0222
vn -0.0069 -0.9995 0.0313
vn -0.0064 -0.9995 0.0311
vn 0.0370 -0.9992 0.0178
vn 0.0371 -0.9992 0.0176
vn -0.0207 -0.9993 0.0326
vn -0.0176 -0.9994 0.0302
vn -0.0291 -0.9991 0.0321
vn 0.0408 -0.9991 0.0092
vn 0.0406 -0.9991 0.0099
vn -0.0313 -0.9990 0.0307
vn -0.0325 -0.9991 0.0289
vn -0.0347 -0.9991 0.0245
vn -0.0347 -0.9991 0.0247
vn -0.0378 -0.9991 0.0181
vn -0.0375 -0.9991 0.0186
vn -0.0410 -0.9991 0.0096
vn -0.0408 -0.9991 0.0103
vn -0.0439 -0.9990 -0.0021
vn -0.0437 -0.9990 -0.0014
vn -0.0463 -0.9989 -0.0118
vn -0.0464 -0.9989 -0.0119
vn 0.0437 -0.9990 -0.0018
vn 0.0438 -0.9990 -0.0025
vn 0.0444 -0.9989 -0.0131
vn 0.0473 -0.9988 -0.0105
vn 0.0488 -0.9985 -0.0267
vn -0.0500 -0.9985 -0.0234
vn -0.0501 -0.9985 -0.0237
vn 0.0530 -0.9982 -0.0263
vn 0.0533 -0.9980 -0.0350
vn 0.0525 -0.9983 -0.0268
vn 0.0520 -0.9983 -0.0254
vn 0.0347 -0.9988 -0.0358
vn 0.0248 -0.9987 -0.0439
vn -0.0533 -0.9981 -0.0299
vn -0.0531 -0.9981 -0.0297
vn -0.0529 -0.9983 -0.0261
vn -0.0524 -0.9983 -0.0247
vn -0.0352 -0.9988 -0.0353
vn -0.0253 -0.9987 -0.0436
vn -0.0004 -0.9984 -0.0566
vn -0.0004 -0.9984 -0.0562
vt 0.619699 0.369746
vt 0.604492 0.378112
vt 0.619338 0.439408
vt 0.635136 0.429165
vt 0.629622 0.469739
vt 0.571442 0.525475
vt 0.531338 0.562116
vt 0.542350 0.567895
vt 0.512227 0.609662
vt 0.523750 0.611902
vt 0.500938 0.660049
vt 0.511721 0.661969
vt 0.498028 0.710536
vt 0.508279 0.709992
vt 0.502352 0.762073
vt 0.512064 0.761543
vt 0.513843 0.812317
vt 0.522747 0.809790
vt 0.532393 0.860609
vt 0.540957 0.858210
vt 0.498028 0.460655
vt 0.514975 0.469738
vt 0.537314 0.453983
vt 0.519250 0.445961
vt 0.557874 0.428877
vt 0.540060 0.421340
vt 0.575864 0.395724
vt 0.557446 0.390841
vt 0.587280 0.364156
vt 0.569209 0.359428
vt 0.598508 0.315257
vt 0.579927 0.313872
vt 0.604039 0.259562
vt 0.585512 0.257972
vt 0.602710 0.198134
vt 0.584150 0.203810
vt 0.597843 0.159427
vt 0.579044 0.165229
vt 0.589281 0.125394
vt 0.570058 0.131279
vt 0.573932 0.082585
vt 0.554476 0.088698
vt 0.537841 0.056863
vt 0.556466 0.048931
vt 0.536906 0.021197
vt 0.518322 0.029437
vt 0.498028 0.009424
vt 0.515689 0.000000
vt 0.981788 0.761520
vt 0.991725 0.762049
vt 0.996047 0.710511
vt 0.985575 0.709969
vt 0.982131 0.661946
vt 0.993135 0.660025
vt 0.981835 0.609639
vt 0.970105 0.611880
vt 0.951513 0.567875
vt 0.962713 0.562095
vt 0.932779 0.520885
vt 0.922432 0.525458
vt 0.619700 0.136553
vt 0.635136 0.078185
vt 0.619338 0.067920
vt 0.604492 0.128259
vt 0.624432 0.253138
vt 0.604039 0.253187
vt 0.709690 0.267890
vt 0.680996 0.254914
vt 0.687740 0.276029
vt 0.692882 0.301865
vt 0.702398 0.246006
vt 0.714105 0.297058
vt 0.692034 0.224654
vt 0.884124 0.836097
vt 0.873480 0.825837
vt 0.854147 0.871360
vt 0.884433 0.792130
vt 0.717735 0.343834
vt 0.697396 0.343319
vt 0.696641 0.381604
vt 0.717056 0.382441
vt 0.693233 0.406094
vt 0.713635 0.415142
vt 0.686442 0.437781
vt 0.708347 0.448732
vt 0.680996 0.453131
vt 0.703174 0.469739
vt 0.639839 0.894348
vt 0.656117 0.887522
vt 0.623684 0.829777
vt 0.609599 0.835800
vt 0.611968 0.797388
vt 0.598183 0.803189
vt 0.604511 0.757319
vt 0.588239 0.753694
vt 0.603259 0.722613
vt 0.587137 0.719226
vt 0.608605 0.676138
vt 0.593752 0.671392
vt 0.619308 0.643461
vt 0.605098 0.638977
vt 0.665126 0.469739
vt 0.680996 0.456269
vt 0.667778 0.432204
vt 0.653322 0.446717
vt 0.657650 0.401440
vt 0.643427 0.416112
vt 0.650341 0.364112
vt 0.635136 0.375188
vt 0.652793 0.315365
vt 0.635484 0.313833
vt 0.642565 0.254425
vt 0.656262 0.267855
vt 0.667680 0.238380
vt 0.668329 0.202762
vt 0.680996 0.217334
vt 0.871055 0.608700
vt 0.856348 0.610977
vt 0.885530 0.676124
vt 0.900192 0.671377
vt 0.890875 0.722599
vt 0.905673 0.753678
vt 0.890050 0.757307
vt 0.971101 0.809769
vt 0.952886 0.858190
vt 0.929151 0.901553
vt 0.863358 0.876652
vt 0.894176 0.943504
vt 0.841897 0.906115
vt 0.864572 0.968395
vt 0.813037 0.928352
vt 0.828871 0.986489
vt 0.776347 1.000000
vt 0.766530 0.948088
vt 0.727917 0.948261
vt 0.719302 0.999907
vt 0.695050 0.937214
vt 0.670337 0.987596
vt 0.661162 0.916621
vt 0.634734 0.969995
vt 0.808420 0.554321
vt 0.863550 0.469761
vt 0.746998 0.548806
vt 0.746921 0.469739
vt 0.597692 0.940659
vt 0.564688 0.901571
vt 0.622917 0.608712
vt 0.648895 0.580907
vt 0.685587 0.554327
vt 0.630350 0.469769
vt 0.276544 0.999948
vt 0.229330 0.933738
vt 0.219714 1.000000
vt 0.160308 0.983827
vt 0.267630 0.933252
vt 0.188143 0.915482
vt 0.124519 0.965499
vt 0.162625 0.893157
vt 0.094803 0.940714
vt 0.141920 0.864346
vt 0.059569 0.898887
vt 0.122589 0.818821
vt 0.034365 0.853617
vt 0.329228 0.986071
vt 0.292282 0.922801
vt 0.111637 0.785109
vt 0.015813 0.805318
vt 0.324315 0.899921
vt 0.364976 0.968507
vt 0.405025 0.937650
vt 0.004323 0.755071
vt 0.106023 0.750280
vt 0.339954 0.880499
vt 0.438458 0.898887
vt 0.463661 0.853616
vt 0.372390 0.822747
vt 0.482212 0.805318
vt 0.384108 0.790353
vt 0.493705 0.755070
vt 0.391567 0.750277
vt 0.498028 0.703532
vt 0.392821 0.715567
vt 0.495116 0.653049
vt 0.387476 0.669090
vt 0.105200 0.715567
vt 0.000000 0.703533
vt 0.002910 0.653050
vt 0.110545 0.669090
vt 0.014206 0.602668
vt 0.483823 0.602668
vt 0.376773 0.636410
vt 0.139732 0.603932
vt 0.033324 0.555131
vt 0.063261 0.513914
vt 0.166082 0.577173
vt 0.124081 0.462879
vt 0.200055 0.555574
vt 0.358290 0.603932
vt 0.464707 0.555130
vt 0.434766 0.513914
vt 0.331940 0.577176
vt 0.373946 0.462879
vt 0.297964 0.555577
vt 0.249013 0.462889
vt 0.249010 0.552305
s 1
usemtl Seat
f 547/535/443 548/536/443 549/537/444
f 547/535/443 549/537/444 550/538/445
f 550/538/445 549/537/444 551/539/446
f 552/540/447 553/541/448 554/542/449
f 554/542/449 553/541/448 555/543/450
f 554/542/449 555/543/450 556/544/451
f 556/544/451 555/543/450 557/545/452
f 556/544/451 557/545/452 558/546/453
f 558/546/453 557/545/452 559/547/454
f 558/546/453 559/547/454 560/548/455
f 560/548/455 559/547/454 561/549/456
f 560/548/455 561/549/456 562/550/457
f 562/550/457 561/549/456 563/551/458
f 562/550/457 563/551/458 564/552/459
f 564/552/459 563/551/458 565/553/460
f 564/552/459 565/553/460 566/554/461
f 567/555/462 568/556/460 569/557/463
f 567/555/462 569/557/463 570/558/464
f 570/558/464 569/557/463 571/559/465
f 570/558/464 571/559/465 572/560/466
f 572/560/466 571/559/465 573/561/467
f 572/560/466 573/561/467 574/562/468
f 574/562/468 573/561/467 575/563/469
f 574/562/468 575/563/469 576/564/470
f 576/564/470 575/563/469 577/565/471
f 576/564/470 577/565/471 578/566/472
f 578/566/472 577/565/471 579/567/473
f 578/566/472 579/567/473 580/568/474
f 580/568/474 579/567/473 581/569/475
f 580/568/474 581/569/475 582/570/476
f 582/570/476 581/569/475 583/571/477
f 582/570/476 583/571/477 584/572/478
f 584/572/478 583/571/477 585/573/479
f 584/572/478 585/573/479 586/574/480
f 586/574/480 585/573/479 587/575/481
f 586/574/480 587/575/481 588/576/482
f 589/577/483 588/576/482 587/575/481
f 589/577/483 587/575/481 590/578/484
f 589/577/483 590/578/484 591/579/485
f 589/577/483 591/579/485 592/580/486
f 593/581/487 592/580/486 591/579/485
f 593/581/487 591/579/485 594/582/488
f 595/583/489 596/584/488 597/585/490
f 595/583/489 597/585/490 598/586/491
f 599/587/492 598/586/491 597/585/490
f 599/587/492 597/585/490 600/588/493
f 599/587/492 600/588/493 601/589/494
f 599/587/492 601/589/494 602/590/495
f 603/591/496 602/590/495 601/589/494
f 603/591/496 601/589/494 604/592/497
f 603/591/496 604/592/497 605/593/498
f 603/591/496 605/593/498 606/594/499
f 607/595/500 608/596/499 609/597/498
f 607/595/500 609/597/498 610/598/501
s 0
f 611/536/502 612/535/502 613/599/502
f 611/536/503 613/599/503 614/600/503
f 615/598/504 614/600/504 613/599/504
f 615/598/504 613/599/504 616/595/504
s 1
f 617/601/505 618/602/506 619/603/507
f 617/601/505 619/603/507 620/604/508
f 617/601/505 621/605/509 618/602/506
f 617/601/505 620/604/508 622/606/510
f 623/607/511 618/602/506 621/605/509
f 624/608/511 625/609/512 626/610/513
f 624/608/511 627/611/514 625/609/512
f 620/604/508 628/612/515 622/606/510
f 620/604/508 629/613/516 628/612/515
f 628/612/515 629/613/516 630/614/517
f 628/612/515 630/614/517 631/615/518
f 631/615/518 630/614/517 632/616/519
f 631/615/518 632/616/519 633/617/520
f 633/617/520 632/616/519 634/618/521
f 633/617/520 634/618/521 635/619/522
f 635/619/522 634/618/521 636/620/523
f 635/619/522 636/620/523 637/621/524
f 638/622/525 639/623/523 640/624/526
f 638/622/525 640/624/526 641/625/527
f 641/625/527 640/624/526 642/626/528
f 641/625/527 642/626/528 643/627/529
f 643/627/529 642/626/528 644/628/530
f 643/627/529 644/628/530 645/629/531
f 645/629/531 644/628/530 646/630/532
f 645/629/531 646/630/532 647/631/533
f 647/631/533 646/630/532 648/632/534
f 647/631/533 648/632/534 649/633/535
f 649/633/535 648/632/534 650/634/536
f 649/633/535 650/634/536 651/635/537
f 652/636/538 653/637/539 654/638/540
f 652/636/538 654/638/540 655/639/541
f 655/639/541 654/638/540 656/640/542
f 655/639/541 656/640/542 657/641/543
f 657/641/543 656/640/542 658/642/544
f 657/641/543 658/642/544 659/643/545
f 659/643/545 658/642/544 660/644/546
f 659/643/545 660/644/546 661/645/547
f 662/646/548 661/645/547 660/644/546
f 662/646/548 660/644/546 663/647/549
f 664/648/550 662/646/548 663/647/549
f 665/649/551 662/646/548 664/648/550
f 665/649/551 664/648/550 666/650/552
f 667/651/551 668/652/553 669/653/554
f 667/651/551 669/653/554 670/654/555
f 671/655/556 670/654/555 669/653/554
f 672/656/557 670/654/555 671/655/556
f 672/656/557 671/655/556 673/657/558
f 627/611/514 672/656/557 673/657/558
f 624/608/511 672/656/557 627/611/514
f 674/658/559 675/608/560 676/659/561
f 677/660/562 676/659/561 675/608/560
f 677/660/562 675/608/560 678/661/563
f 678/661/563 679/662/564 677/660/562
f 678/661/563 680/663/565 679/662/564
f 681/664/566 679/662/564 680/663/565
f 674/658/559 682/656/567 675/608/560
f 674/658/559 683/583/568 682/656/567
f 684/586/569 682/656/567 683/583/568
f 684/586/569 685/654/570 682/656/567
f 686/587/571 685/654/570 684/586/569
f 687/665/572 681/664/566 680/663/565
f 687/665/572 688/666/573 681/664/566
f 686/587/571 689/651/574 685/654/570
f 687/665/572 690/667/575 688/666/573
f 687/665/572 691/668/575 690/667/575
f 690/667/575 691/668/575 692/669/576
f 690/667/575 692/669/576 693/670/577
f 693/670/577 692/669/576 694/671/578
f 693/670/577 694/671/578 695/672/579
f 695/672/579 694/671/578 696/673/580
f 695/672/579 696/673/580 697/674/581
f 686/587/571 698/590/582 689/651/574
f 699/591/583 689/651/574 698/590/582
f 699/591/583 700/594/584 689/651/574
f 700/594/584 701/675/585 689/651/574
f 700/594/584 702/676/586 701/675/585
f 702/676/586 703/677/587 701/675/585
f 702/676/586 704/678/587 703/677/587
f 697/674/581 696/673/580 705/622/588
f 697/674/581 705/622/588 706/679/589
f 707/680/590 706/679/589 705/622/588
f 707/680/590 705/622/588 708/625/591
f 709/554/592 707/680/590 708/625/591
f 709/554/592 708/625/591 710/627/593
f 711/552/594 709/554/592 710/627/593
f 711/552/594 710/627/593 712/629/595
f 713/550/596 711/552/594 712/629/595
f 713/550/596 712/629/595 714/631/597
f 715/548/598 713/550/596 714/631/597
f 715/548/598 714/631/597 716/633/599
f 717/546/600 715/548/598 716/633/599
f 717/546/600 716/633/599 718/635/601
f 717/546/600 718/635/601 719/544/602
f 719/544/602 718/635/601 720/681/603
f 719/544/602 720/681/603 721/542/604
f 721/542/604 720/681/603 722/682/605
f 721/542/604 722/682/605 723/540/606
f 723/540/606 722/682/605 724/683/607
f 723/540/606 724/683/607 725/684/608
f 704/678/587 725/684/608 724/683/607
f 704/678/587 724/683/607 703/677/587
f 726/685/609 727/686/610 728/687/611
f 729/688/612 728/687/611 727/686/610
f 726/685/609 730/689/613 727/686/610
f 729/688/612 727/686/610 731/690/614
f 731/690/614 732/691/615 729/688/612
f 731/690/614 733/692/616 732/691/615
f 732/691/615 733/692/616 734/693/617
f 735/694/618 734/693/617 733/692/616
f 735/694/618 736/695/619 734/693/617
f 737/696/620 736/695/619 735/694/618
f 737/696/620 738/697/621 736/695/619
f 739/698/622 730/689/613 726/685/609
f 739/698/622 740/699/623 730/689/613
f 741/700/624 738/697/621 737/696/620
f 741/700/624 742/701/625 738/697/621
f 739/698/622 743/702/626 740/699/623
f 739/698/622 744/703/627 743/702/626
f 745/704/628 743/702/626 744/703/627
f 741/700/624 746/705/629 742/701/625
f 741/700/624 747/706/630 746/705/629
f 745/704/628 748/707/631 743/702/626
f 748/707/631 745/704/628 749/708/632
f 750/709/633 748/707/631 749/708/632
f 750/709/633 751/710/634 748/707/631
f 752/711/635 751/710/634 750/709/633
f 752/711/635 753/712/636 751/710/634
f 754/713/637 753/712/636 752/711/635
f 754/713/637 755/714/638 753/712/636
f 756/715/639 755/714/638 754/713/637
f 756/715/639 757/716/640 755/714/638
f 758/717/641 757/716/640 756/715/639
f 758/717/641 759/718/642 757/716/640
f 760/719/643 746/705/629 747/706/630
f 760/719/643 761/720/644 746/705/629
f 760/719/643 762/721/645 761/720/644
f 760/719/643 763/722/646 762/721/645
f 763/722/646 764/723/647 762/721/645
f 765/724/648 759/718/642 758/717/641
f 765/724/648 766/725/649 759/718/642
f 763/722/646 767/726/650 764/723/647
f 764/723/647 767/726/650 768/727/651
f 769/728/652 768/727/651 767/726/650
f 769/728/652 767/726/650 770/729/653
f 771/730/654 769/728/652 770/729/653
f 771/730/654 770/729/653 772/731/655
f 765/724/648 773/732/656 766/725/649
f 765/724/648 774/733/657 773/732/656
f 775/734/658 773/732/656 774/733/657
f 775/734/658 776/735/659 773/732/656
f 777/736/660 776/735/659 775/734/658
f 777/736/660 778/737/661 776/735/659
f 779/738/662 771/730/654 772/731/655
f 779/738/662 778/737/661 777/736/660
f 779/738/662 772/731/655 780/739/663
f 779/738/662 780/739/663 778/737/661
o Lid_Lid_0
v -0.088838 1.071995 -0.222410
v -0.204513 1.111351 -0.247885
v -0.204330 1.071995 -0.221604
v -0.088838 1.071995 -0.222410
v -0.089022 1.111351 -0.248692
v -0.204513 1.111351 -0.247885
v -0.089022 1.111351 -0.248692
v -0.204741 1.111351 -0.280593
v -0.204513 1.111351 -0.247885
v -0.089250 1.111351 -0.281400
v -0.089250 1.111351 -0.281400
v -0.204907 1.071995 -0.304307
v -0.204741 1.111351 -0.280593
v -0.089250 1.111351 -0.281400
v -0.089416 1.071995 -0.305108
v -0.204907 1.071995 -0.304307
v -0.204907 1.071995 -0.304307
v -0.204513 1.111351 -0.247885
v -0.204741 1.111351 -0.280593
v -0.204330 1.071995 -0.221604
v -0.088838 1.071995 -0.222410
v -0.089250 1.111351 -0.281400
v -0.089022 1.111351 -0.248692
v -0.089416 1.071995 -0.305108
v 0.046338 2.157527 -0.240511
v -0.050543 2.157429 -0.239834
v -0.144248 2.134089 -0.239180
v 0.156955 2.129631 -0.241283
v -0.207990 2.099225 -0.238735
v 0.220771 2.093258 -0.241729
v -0.279400 2.037983 -0.238237
v 0.278241 2.039606 -0.242130
v -0.339016 1.961054 -0.237820
v 0.336581 1.961054 -0.242537
v -0.383951 1.871206 -0.237507
v 0.381522 1.871206 -0.242851
v -0.420404 1.775360 -0.237252
v 0.417936 1.775360 -0.243106
v -0.448746 1.675630 -0.237055
v 0.446192 1.675630 -0.243303
v -0.464263 1.573350 -0.236947
v 0.461619 1.573350 -0.243411
v -0.462095 1.473154 -0.236962
v 0.459421 1.473154 -0.243396
v 0.438286 1.373163 -0.243248
v -0.440953 1.373163 -0.237109
v -0.405166 1.278818 -0.237359
v 0.402492 1.278818 -0.242998
v -0.349108 1.197018 -0.237751
v 0.346440 1.197018 -0.242607
v 0.232572 1.099227 -0.241812
v -0.235239 1.099227 -0.238546
v 0.311762 1.246227 -0.288873
v 0.209176 1.155116 -0.288157
v -0.212277 1.155116 -0.285214
v -0.314863 1.246227 -0.284498
v -0.365360 1.319915 -0.284146
v 0.362259 1.319916 -0.289226
v -0.397607 1.404917 -0.283920
v 0.394506 1.404917 -0.289451
v -0.416146 1.495001 -0.283791
v 0.413045 1.495001 -0.289580
v -0.416836 1.585264 -0.283786
v 0.413785 1.585264 -0.289585
v -0.403128 1.677409 -0.283882
v 0.400159 1.677409 -0.289490
v -0.378566 1.767252 -0.284053
v 0.375659 1.767252 -0.289319
v -0.346245 1.853606 -0.284279
v 0.343372 1.853606 -0.289094
v -0.305761 1.934547 -0.284561
v 0.302889 1.934547 -0.288810
v -0.252049 2.003850 -0.284936
v 0.250325 2.005307 -0.288444
v -0.187720 2.059021 -0.285385
v 0.198548 2.053645 -0.288082
v -0.130296 2.090433 -0.285786
v 0.141062 2.086415 -0.287681
v -0.045639 2.110371 -0.286377
v 0.041632 2.110465 -0.286986
v 0.124900 1.269014 -0.239643
v 0.108335 1.269014 -0.239527
v 0.099001 1.247041 -0.235312
v 0.134293 1.247041 -0.235558
v 0.096046 1.216576 -0.232075
v 0.137292 1.216576 -0.232363
v 0.096082 1.077492 -0.226884
v 0.137329 1.077492 -0.227172
v 0.126070 1.273410 -0.241745
v 0.124900 1.269014 -0.239643
v 0.134293 1.247041 -0.235558
v 0.126070 1.273410 -0.241745
v 0.134293 1.247041 -0.235558
v 0.136890 1.247041 -0.241821
v 0.137292 1.216576 -0.232363
v 0.139737 1.216576 -0.241841
v 0.139737 1.098382 -0.241841
v 0.137329 1.077492 -0.227172
v 0.126070 1.273410 -0.241745
v 0.108335 1.269014 -0.239527
v 0.124900 1.269014 -0.239643
v 0.107131 1.273410 -0.241613
v 0.108335 1.269014 -0.239527
v 0.107131 1.273410 -0.241613
v 0.096310 1.247041 -0.241538
v 0.099001 1.247041 -0.235312
v 0.093470 1.216576 -0.241518
v 0.096046 1.216576 -0.232075
v 0.096082 1.077492 -0.226884
v 0.096082 1.077492 -0.226884
v 0.093470 1.216576 -0.241518
v 0.093470 1.098382 -0.241518
v -0.132595 1.269014 -0.237845
v -0.114861 1.273410 -0.240063
v -0.133800 1.273410 -0.239931
v -0.116031 1.269014 -0.237961
v -0.132595 1.269014 -0.237845
v -0.133800 1.273410 -0.239931
v -0.144620 1.247041 -0.239856
v -0.141930 1.247041 -0.233630
v -0.147461 1.216576 -0.239836
v -0.144885 1.216576 -0.230393
v -0.144848 1.077492 -0.225202
v -0.144848 1.077492 -0.225202
v -0.147461 1.216576 -0.239836
v -0.147461 1.098382 -0.239836
v -0.103638 1.216576 -0.230681
v -0.103602 1.077492 -0.225490
v -0.101194 1.098382 -0.240159
v -0.101194 1.216576 -0.240159
v -0.104040 1.247041 -0.240139
v -0.106638 1.247041 -0.233876
v -0.114861 1.273410 -0.240063
v -0.106638 1.247041 -0.233876
v -0.114861 1.273410 -0.240063
v -0.116031 1.269014 -0.237961
v -0.116031 1.269014 -0.237961
v -0.132595 1.269014 -0.237845
v -0.141930 1.247041 -0.233630
v -0.106638 1.247041 -0.233876
v -0.144885 1.216576 -0.230393
v -0.103638 1.216576 -0.230681
v -0.144848 1.077492 -0.225202
v -0.103602 1.077492 -0.225490
v -0.130296 2.090433 -0.285786
v -0.207990 2.099225 -0.238735
v -0.144248 2.134089 -0.239180
v -0.187720 2.059021 -0.285385
v -0.045639 2.110371 -0.286377
v -0.279400 2.037983 -0.238237
v -0.050543 2.157429 -0.239834
v -0.252049 2.003850 -0.284936
v 0.041632 2.110465 -0.286986
v -0.339016 1.961054 -0.237820
v 0.046338 2.157527 -0.240511
v -0.305761 1.934547 -0.284561
v 0.141062 2.086415 -0.287681
v -0.383951 1.871206 -0.237507
v 0.156955 2.129631 -0.241283
v -0.346245 1.853606 -0.284279
v 0.198548 2.053645 -0.288082
v -0.420404 1.775360 -0.237252
v 0.220771 2.093258 -0.241729
v -0.378566 1.767252 -0.284053
v 0.250325 2.005307 -0.288444
v -0.448746 1.675630 -0.237055
v 0.278241 2.039606 -0.242130
v -0.403128 1.677409 -0.283882
v 0.302889 1.934547 -0.288810
v -0.464263 1.573350 -0.236947
v 0.336581 1.961054 -0.242537
v -0.416836 1.585264 -0.283786
v 0.343372 1.853606 -0.289094
v -0.462095 1.473154 -0.236962
v 0.381522 1.871206 -0.242851
v -0.416146 1.495001 -0.283791
v 0.375659 1.767252 -0.289319
v -0.440953 1.373163 -0.237109
v 0.417936 1.775360 -0.243106
v -0.397607 1.404917 -0.283920
v 0.400159 1.677409 -0.289490
v -0.405166 1.278818 -0.237359
v 0.446192 1.675630 -0.243303
v -0.365360 1.319915 -0.284146
v 0.413785 1.585264 -0.289585
v -0.349108 1.197018 -0.237751
v 0.461619 1.573350 -0.243411
v -0.314863 1.246227 -0.284498
v 0.413045 1.495001 -0.289580
v -0.235239 1.099227 -0.238546
v 0.459421 1.473154 -0.243396
v -0.212277 1.155116 -0.285214
v 0.394506 1.404917 -0.289451
v 0.232572 1.099227 -0.241812
v 0.438286 1.373163 -0.243248
v 0.209176 1.155116 -0.288157
v 0.362259 1.319916 -0.289226
v 0.346440 1.197018 -0.242607
v 0.402492 1.278818 -0.242998
v 0.311762 1.246227 -0.288873
vn 0.0058 0.5554 0.8316
vn -0.0000 1.0000 -0.0000
vn -0.0060 0.5161 -0.8565
vn -0.0059 0.5160 -0.8566
vn -1.0000 -0.0000 0.0070
vn 1.0000 -0.0000 -0.0070
vn 0.0070 -0.0000 1.0000
vn -0.0070 -0.0000 -1.0000
vn 0.0069 0.1856 0.9826
vn 0.0069 0.1259 0.9920
vn 0.0070 0.0482 0.9988
vn 0.0070 0.0373 0.9993
vn 0.7631 0.3634 0.5345
vn 0.7630 0.3634 0.5345
vn 0.9026 0.1932 0.3848
vn 0.9025 0.1932 0.3848
vn 0.9053 0.1886 0.3805
vn 0.9766 0.0177 0.2143
vn 0.9764 0.0184 0.2150
vn 0.9797 0.0042 0.2005
vn 0.0063 0.4301 0.9028
vn -0.7550 0.3632 0.5459
vn -0.7550 0.3633 0.5459
vn -0.8998 0.1885 0.3936
vn -0.8969 0.1932 0.3979
vn -0.9733 0.0183 0.2286
vn -0.9735 0.0177 0.2279
vn -0.9768 0.0042 0.2141
vn 0.0063 0.4304 0.9026
vn -0.9768 0.0042 0.2142
vn -0.2504 0.6654 -0.7032
vn -0.4188 0.5900 -0.6904
vn -0.2462 0.6667 -0.7035
vn -0.4261 0.5855 -0.6897
vn -0.0890 0.6979 -0.7106
vn -0.5309 0.5054 -0.6803
vn -0.0882 0.6980 -0.7107
vn -0.5372 0.4994 -0.6797
vn 0.0876 0.6977 -0.7110
vn -0.6280 0.3947 -0.6707
vn 0.0854 0.6979 -0.7111
vn -0.6316 0.3896 -0.6703
vn 0.2396 0.6654 -0.7070
vn -0.6845 0.2974 -0.6657
vn 0.2369 0.6665 -0.7069
vn -0.6847 0.2974 -0.6654
vn 0.4278 0.5755 -0.6969
vn -0.7050 0.2272 -0.6718
vn 0.4198 0.5807 -0.6975
vn -0.7044 0.2308 -0.6713
vn 0.5487 0.4789 -0.6853
vn -0.7125 0.1462 -0.6863
vn 0.5419 0.4854 -0.6861
vn -0.7120 0.1561 -0.6846
vn 0.6277 0.3841 -0.6771
vn -0.7104 0.0397 -0.7027
vn 0.6239 0.3896 -0.6775
vn -0.7114 0.0565 -0.7005
vn 0.6769 0.2971 -0.6734
vn -0.6895 -0.0869 -0.7191
vn 0.6767 0.2981 -0.6732
vn -0.6944 -0.0670 -0.7165
vn 0.6966 0.2309 -0.6793
vn -0.6487 -0.1964 -0.7352
vn 0.6972 0.2274 -0.6799
vn -0.6562 -0.1810 -0.7326
vn 0.7042 0.1560 -0.6927
vn -0.5725 -0.3098 -0.7592
vn 0.7045 0.1459 -0.6945
vn -0.5875 -0.2907 -0.7552
vn 0.7033 0.0562 -0.7087
vn -0.4543 -0.4333 -0.7784
vn 0.7023 0.0394 -0.7108
vn -0.4674 -0.4214 -0.7772
vn 0.6860 -0.0671 -0.7245
vn -0.1133 -0.6069 -0.7867
vn 0.6810 -0.0874 -0.7270
vn -0.1073 -0.6089 -0.7860
vn 0.6477 -0.1813 -0.7400
vn 0.1020 -0.6072 -0.7880
vn 0.6395 -0.1975 -0.7430
vn 0.0967 -0.6090 -0.7872
vn 0.5781 -0.2913 -0.7622
vn 0.4441 -0.4341 -0.7838
vn 0.5628 -0.3107 -0.7660
vn 0.4573 -0.4221 -0.7828
vt 0.902832 0.503906
vt 0.913574 0.473633
vt 0.902832 0.473633
vt 0.913574 0.503906
vt 0.922363 0.473633
vt 0.921875 0.503906
vt 0.932129 0.473633
vt 0.932129 0.503906
vt 0.928711 0.463379
vt 0.906738 0.463379
vt 0.907227 0.514160
vt 0.928223 0.514160
vt 0.275738 0.428505
vt 0.223419 0.428558
vt 0.172817 0.441162
vt 0.335474 0.443569
vt 0.138394 0.459989
vt 0.369936 0.463211
vt 0.099831 0.493060
vt 0.400971 0.492184
vt 0.067637 0.534603
vt 0.432476 0.534603
vt 0.043371 0.583122
vt 0.456746 0.583122
vt 0.023685 0.634880
vt 0.476410 0.634880
vt 0.008380 0.688735
vt 0.491669 0.688735
vt 0.000000 0.743968
vt 0.500000 0.743968
vt 0.001171 0.798075
vt 0.498813 0.798075
vt 0.487400 0.852071
vt 0.012588 0.852071
vt 0.031914 0.903019
vt 0.468070 0.903019
vt 0.062187 0.947192
vt 0.437801 0.947192
vt 0.376309 1.000000
vt 0.123679 1.000000
vt 0.580751 0.920618
vt 0.636150 0.969819
vt 0.863745 0.969819
vt 0.919145 0.920618
vt 0.946414 0.880826
vt 0.553481 0.880826
vt 0.963828 0.834924
vt 0.536067 0.834924
vt 0.973840 0.786277
vt 0.526055 0.786277
vt 0.974212 0.737534
vt 0.525656 0.737534
vt 0.966810 0.687775
vt 0.533014 0.687775
vt 0.953546 0.639259
vt 0.546245 0.639259
vt 0.936092 0.592626
vt 0.563681 0.592626
vt 0.914229 0.548917
vt 0.585543 0.548917
vt 0.885223 0.511492
vt 0.613928 0.510705
vt 0.850484 0.481699
vt 0.641889 0.484602
vt 0.819474 0.464737
vt 0.672933 0.466906
vt 0.773757 0.453970
vt 0.726628 0.453919
vt 0.860840 0.523438
vt 0.857422 0.523438
vt 0.854980 0.528564
vt 0.863281 0.528564
vt 0.854492 0.535645
vt 0.863770 0.535645
vt 0.854492 0.567139
vt 0.863770 0.567139
vt 0.861328 0.522217
vt 0.865234 0.528320
vt 0.866211 0.535156
vt 0.867188 0.561523
vt 0.856934 0.522217
vt 0.853027 0.528320
vt 0.852539 0.535156
vt 0.850098 0.561768
vt 0.876953 0.523438
vt 0.880859 0.522217
vt 0.876465 0.522217
vt 0.880859 0.523438
vt 0.873047 0.528320
vt 0.875000 0.528564
vt 0.872070 0.535156
vt 0.874023 0.535645
vt 0.874023 0.567139
vt 0.870117 0.561768
vt 0.883789 0.535645
vt 0.883789 0.567139
vt 0.886719 0.561523
vt 0.885742 0.535156
vt 0.885254 0.528320
vt 0.882812 0.528564
vt 0.861606 0.459989
vt 0.827183 0.441162
vt 0.900169 0.493060
vt 0.776581 0.428558
vt 0.932363 0.534603
vt 0.724262 0.428505
vt 0.956629 0.583122
vt 0.664526 0.443569
vt 0.976315 0.634880
vt 0.630064 0.463211
vt 0.991620 0.688735
vt 0.599029 0.492184
vt 1.000000 0.743968
vt 0.567524 0.534603
vt 0.998829 0.798075
vt 0.543254 0.583122
vt 0.987412 0.852071
vt 0.523590 0.634880
vt 0.968086 0.903019
vt 0.508331 0.688735
vt 0.937813 0.947192
vt 0.500000 0.743968
vt 0.876321 1.000000
vt 0.501187 0.798075
vt 0.623691 1.000000
vt 0.512600 0.852071
vt 0.562199 0.947192
vt 0.531930 0.903019
s 0
usemtl material
f 781/740/664 782/741/664 783/742/664
f 784/740/664 785/743/664 786/741/664
f 787/743/665 788/744/665 789/741/665
f 787/743/665 790/745/665 788/744/665
f 791/745/666 792/746/666 793/744/666
f 794/745/667 795/747/667 796/746/667
f 797/748/668 798/741/668 799/744/668
f 797/748/668 800/749/668 798/741/668
f 801/750/669 802/745/669 803/743/669
f 801/750/669 804/751/669 802/745/669
f 805/752/670 806/753/670 807/754/670
f 805/752/670 807/754/670 808/755/670
f 808/755/670 807/754/670 809/756/670
f 808/755/670 809/756/670 810/757/670
f 810/757/670 809/756/670 811/758/670
f 810/757/670 811/758/670 812/759/670
f 812/759/670 811/758/670 813/760/670
f 812/759/670 813/760/670 814/761/670
f 814/761/670 813/760/670 815/762/670
f 814/761/670 815/762/670 816/763/670
f 816/763/670 815/762/670 817/764/670
f 816/763/670 817/764/670 818/765/670
f 818/765/670 817/764/670 819/766/670
f 818/765/670 819/766/670 820/767/670
f 820/767/670 819/766/670 821/768/670
f 820/767/670 821/768/670 822/769/670
f 822/769/670 821/768/670 823/770/670
f 822/769/670 823/770/670 824/771/670
f 825/772/670 824/771/670 823/770/670
f 825/772/670 823/770/670 826/773/670
f 825/772/670 826/773/670 827/774/670
f 825/772/670 827/774/670 828/775/670
f 828/775/670 827/774/670 829/776/670
f 828/775/670 829/776/670 830/777/670
f 831/778/670 830/777/670 829/776/670
f 831/778/670 829/776/670 832/779/670
f 833/780/671 834/781/671 835/782/671
f 833/780/671 835/782/671 836/783/671
f 833/780/671 836/783/671 837/784/671
f 833/780/671 837/784/671 838/785/671
f 838/785/671 837/784/671 839/786/671
f 838/785/671 839/786/671 840/787/671
f 840/787/671 839/786/671 841/788/671
f 840/787/671 841/788/671 842/789/671
f 842/789/671 841/788/671 843/790/671
f 842/789/671 843/790/671 844/791/671
f 844/791/671 843/790/671 845/792/671
f 844/791/671 845/792/671 846/793/671
f 846/793/671 845/792/671 847/794/671
f 846/793/671 847/794/671 848/795/671
f 848/795/671 847/794/671 849/796/671
f 848/795/671 849/796/671 850/797/671
f 850/797/671 849/796/671 851/798/671
f 850/797/671 851/798/671 852/799/671
f 852/799/671 851/798/671 853/800/671
f 852/799/671 853/800/671 854/801/671
f 854/801/671 853/800/671 855/802/671
f 854/801/671 855/802/671 856/803/671
f 856/803/671 855/802/671 857/804/671
f 856/803/671 857/804/671 858/805/671
f 858/805/671 857/804/671 859/806/671
f 858/805/671 859/806/671 860/807/671
s 1
f 861/808/672 862/809/672 863/810/673
f 861/808/672 863/810/673 864/811/673
f 864/811/673 863/810/673 865/812/674
f 864/811/673 865/812/674 866/813/674
f 866/813/674 865/812/674 867/814/675
f 866/813/674 867/814/675 868/815/675
f 869/816/676 870/808/677 871/811/678
f 872/816/676 873/811/679 874/817/680
f 874/817/680 873/811/679 875/813/681
f 874/817/680 875/813/681 876/818/682
f 877/819/683 876/818/682 875/813/681
f 877/819/683 875/813/681 878/815/683
f 879/816/684 880/809/684 881/808/684
s 0
f 879/816/684 882/820/684 880/809/684
s 1
f 883/809/685 884/820/686 885/821/687
f 883/809/685 885/821/687 886/810/688
f 886/810/688 885/821/687 887/822/689
f 886/810/688 887/822/689 888/812/690
f 889/814/691 888/812/690 887/822/689
f 890/814/691 891/822/689 892/823/691
s 0
f 893/824/684 894/825/684 895/826/684
f 893/824/684 896/827/692 894/825/684
s 1
f 897/824/685 898/826/686 899/828/687
f 897/824/685 899/828/687 900/829/688
f 900/829/688 899/828/687 901/830/689
f 900/829/688 901/830/689 902/831/690
f 903/832/693 902/831/690 901/830/689
f 904/832/691 905/830/689 906/833/691
f 907/834/681 908/835/683 909/836/683
f 907/834/681 909/836/683 910/837/682
f 907/834/681 910/837/682 911/838/680
f 907/834/681 911/838/680 912/839/679
f 912/839/679 911/838/680 913/825/676
f 914/839/678 915/825/676 916/827/677
f 917/827/672 918/824/672 919/829/673
f 917/827/672 919/829/673 920/839/673
f 920/839/673 919/829/673 921/831/674
f 920/839/673 921/831/674 922/834/674
f 922/834/674 921/831/674 923/832/675
f 922/834/674 923/832/675 924/835/675
f 925/804/694 926/840/695 927/841/696
f 925/804/694 928/802/697 926/840/695
f 927/841/696 929/806/698 925/804/694
f 928/802/697 930/842/699 926/840/695
f 927/841/696 931/843/700 929/806/698
f 928/802/697 932/800/701 930/842/699
f 931/843/700 933/807/702 929/806/698
f 932/800/701 934/844/703 930/842/699
f 931/843/700 935/845/704 933/807/702
f 932/800/701 936/798/705 934/844/703
f 935/845/704 937/805/706 933/807/702
f 936/798/705 938/846/707 934/844/703
f 935/845/704 939/847/708 937/805/706
f 936/798/705 940/796/709 938/846/707
f 939/847/708 941/803/710 937/805/706
f 940/796/709 942/848/711 938/846/707
f 939/847/708 943/849/712 941/803/710
f 940/796/709 944/794/713 942/848/711
f 943/849/712 945/801/714 941/803/710
f 944/794/713 946/850/715 942/848/711
f 943/849/712 947/851/716 945/801/714
f 944/794/713 948/792/717 946/850/715
f 947/851/716 949/799/718 945/801/714
f 948/792/717 950/852/719 946/850/715
f 947/851/716 951/853/720 949/799/718
f 948/792/717 952/790/721 950/852/719
f 951/853/720 953/797/722 949/799/718
f 952/790/721 954/854/723 950/852/719
f 951/853/720 955/855/724 953/797/722
f 952/790/721 956/788/725 954/854/723
f 955/855/724 957/795/726 953/797/722
f 956/788/725 958/856/727 954/854/723
f 955/855/724 959/857/728 957/795/726
f 956/788/725 960/786/729 958/856/727
f 959/857/728 961/793/730 957/795/726
f 960/786/729 962/858/731 958/856/727
f 959/857/728 963/859/732 961/793/730
f 960/786/729 964/784/733 962/858/731
f 963/859/732 965/791/734 961/793/730
f 964/784/733 966/860/735 962/858/731
f 963/859/732 967/861/736 965/791/734
f 964/784/733 968/783/737 966/860/735
f 967/861/736 969/789/738 965/791/734
f 968/783/737 970/862/739 966/860/735
f 967/861/736 971/863/740 969/789/738
f 968/783/737 972/782/741 970/862/739
f 971/863/740 973/787/742 969/789/738
f 972/782/741 974/864/743 970/862/739
f 971/863/740 975/865/744 973/787/742
f 972/782/741 976/781/745 974/864/743
f 975/865/744 977/785/746 973/787/742
f 976/781/745 978/866/747 974/864/743
f 975/865/744 979/867/748 977/785/746
f 976/781/745 980/780/749 978/866/747
f 979/867/748 980/780/749 977/785/746
f 979/867/748 978/866/747 980/780/749
